<svg xmlns="http://www.w3.org/2000/svg" width="24" height="24" viewBox="0 0 24 24">
    <path d="M0,0H24V24H0Z" fill="none"/>
    <path d="M12.636,10.8a1.592,1.592,0,0,0,1.4-.824L16.9,4.783A.8.8,0,0,0,16.2,3.6H4.367L3.615,2H1V3.6H2.6l2.879,6.07L4.4,11.62A1.6,1.6,0,0,0,5.8,14h9.6V12.4H5.8l.88-1.6ZM5.126,5.2h9.716l-2.207,4H7.022ZM5.8,14.8a1.6,1.6,0,1,0,1.6,1.6A1.6,1.6,0,0,0,5.8,14.8Zm8,0a1.6,1.6,0,1,0,1.6,1.6A1.6,1.6,0,0,0,13.8,14.8Z"
          transform="translate(3 2.003)" fill="#a1aaba"/>
</svg>