<svg xmlns="http://www.w3.org/2000/svg" width="24" height="24" viewBox="0 0 24 24">
    <path d="M0,0H24V24H0Z" fill="none"/>
    <path d="M16.383,11.03a6.409,6.409,0,0,0,.058-.806,6.41,6.41,0,0,0-.058-.806l1.735-1.357a.415.415,0,0,0,.1-.526L16.572,4.689a.411.411,0,0,0-.362-.206.384.384,0,0,0-.14.025l-2.048.822a6.009,6.009,0,0,0-1.39-.806L12.32,2.345a.4.4,0,0,0-.4-.345H8.628a.4.4,0,0,0-.4.345L7.912,4.525a6.319,6.319,0,0,0-1.39.806L4.474,4.508a.466.466,0,0,0-.148-.025.407.407,0,0,0-.354.206L2.328,7.535a.405.405,0,0,0,.1.526L4.162,9.418a6.522,6.522,0,0,0-.058.806,6.522,6.522,0,0,0,.058.806L2.426,12.387a.415.415,0,0,0-.1.526l1.645,2.846a.411.411,0,0,0,.362.206.384.384,0,0,0,.14-.025l2.048-.822a6.009,6.009,0,0,0,1.39.806L8.225,18.1a.4.4,0,0,0,.4.345h3.29a.4.4,0,0,0,.4-.345l.313-2.179a6.319,6.319,0,0,0,1.39-.806l2.048.822a.466.466,0,0,0,.148.025.407.407,0,0,0,.354-.206l1.645-2.846a.415.415,0,0,0-.1-.526ZM14.755,9.624a4.394,4.394,0,0,1,.041.6c0,.173-.016.354-.041.6l-.115.929.732.576.888.691-.576,1L14.64,13.6l-.855-.345-.74.559a4.817,4.817,0,0,1-1.028.6l-.872.354-.132.929-.164,1.11H9.7l-.156-1.11-.132-.929-.872-.354a4.666,4.666,0,0,1-1.012-.584l-.748-.576-.872.354-1.045.419-.576-1,.888-.691.732-.576-.115-.929c-.025-.255-.041-.444-.041-.609s.016-.354.041-.6l.115-.929-.732-.576-.888-.691.576-1,1.045.419.855.345.74-.559a4.817,4.817,0,0,1,1.028-.6L9.4,5.685l.132-.929L9.7,3.645H10.84L11,4.755l.132.929L12,6.038a4.666,4.666,0,0,1,1.012.584l.748.576.872-.354,1.045-.419.576,1-.88.7-.732.576.115.929ZM10.272,6.935a3.29,3.29,0,1,0,3.29,3.29A3.289,3.289,0,0,0,10.272,6.935Zm0,4.935a1.645,1.645,0,1,1,1.645-1.645A1.65,1.65,0,0,1,10.272,11.869Z"
          transform="translate(1.729 1.776)" fill="#a1aaba"/>
</svg>