<svg xmlns="http://www.w3.org/2000/svg" width="24" height="24" viewBox="0 0 24 24">
    <rect width="24" height="24" fill="none"/>
    <g transform="translate(1.995 1.798)">
        <g transform="translate(2.005 3)">
            <path d="M17.926,7.714l-.84-3.5A1.572,1.572,0,0,0,15.557,3H4.442a1.571,1.571,0,0,0-1.52,1.216l-.84,3.5a2.7,2.7,0,0,0,.5,2.3,3.068,3.068,0,0,0,.224.232V15.8a1.605,1.605,0,0,0,1.6,1.6h11.2a1.605,1.605,0,0,0,1.6-1.6V10.25a2.959,2.959,0,0,0,.224-.224A2.692,2.692,0,0,0,17.926,7.714ZM15.533,4.593l.84,3.5a1.085,1.085,0,0,1-.2.936.939.939,0,0,1-.752.376,1,1,0,0,1-.968-.912L13.989,4.6ZM10.8,4.6h1.569L12.8,8.218a1.076,1.076,0,0,1-.264.856.954.954,0,0,1-.76.328A1.018,1.018,0,0,1,10.8,8.354ZM7.195,8.218,7.635,4.6H9.2V8.354A1.028,1.028,0,0,1,8.171,9.4a.963.963,0,0,1-.712-.328A1.137,1.137,0,0,1,7.195,8.218ZM3.634,8.09,4.442,4.6H6.018L5.554,8.49a1.006,1.006,0,0,1-.968.912.921.921,0,0,1-.744-.376A1.058,1.058,0,0,1,3.634,8.09ZM4.4,15.8V10.979A1.449,1.449,0,0,0,4.586,11a2.5,2.5,0,0,0,1.793-.76A2.574,2.574,0,0,0,8.227,11a2.537,2.537,0,0,0,1.785-.744A2.623,2.623,0,0,0,11.844,11a2.541,2.541,0,0,0,1.793-.76,2.5,2.5,0,0,0,1.793.76,1.449,1.449,0,0,0,.184-.024V15.8Z"
                  transform="translate(-2.005 -3)" fill="#fff"/>
        </g>
    </g>
</svg>