<svg xmlns="http://www.w3.org/2000/svg" width="50" height="50" viewBox="0 0 50 50">
    <g id="グループ_4746" data-name="グループ 4746" transform="translate(-290 -470)">
        <circle id="楕円形_48" data-name="楕円形 48" cx="21" cy="21" r="21" transform="translate(294 474)" fill="#fff"/>
        <g id="Icon_awesome-user-circle" data-name="Icon awesome-user-circle" transform="translate(290 470)">
            <path id="Icon_awesome-user-circle-2" data-name="Icon awesome-user-circle"
                  d="M25,.563a25,25,0,1,0,25,25A25,25,0,0,0,25,.563Zm0,9.677a8.871,8.871,0,1,1-8.871,8.871A8.871,8.871,0,0,1,25,10.24Zm0,34.677a19.317,19.317,0,0,1-14.768-6.875,11.239,11.239,0,0,1,9.929-6.028,2.466,2.466,0,0,1,.716.111,13.347,13.347,0,0,0,4.123.7,13.3,13.3,0,0,0,4.123-.7,2.466,2.466,0,0,1,.716-.111,11.239,11.239,0,0,1,9.929,6.028A19.317,19.317,0,0,1,25,44.917Z"
                  transform="translate(0 -0.563)" fill="#00b562"/>
        </g>
    </g>
</svg>
