<svg xmlns="http://www.w3.org/2000/svg" width="16.708" height="16.708" viewBox="0 0 16.708 16.708">
    <symbol id="adress-book">
        <g transform="translate(0.5 0.5)">
            <path d="M16.5,12.14a.5.5,0,0,1-.354-.854l8.639-8.64a.5.5,0,0,1,.707.707l-8.639,8.64A.5.5,0,0,1,16.5,12.14Z" transform="translate(-9.431 -3)"/>
            <path d="M18.708,2.5a.5.5,0,0,1,.472.665l-5.5,15.708a.5.5,0,0,1-.929.038L9.69,12.018,2.8,8.955a.5.5,0,0,1,.038-.929l15.708-5.5A.5.5,0,0,1,18.708,2.5ZM13.155,17.353,17.893,3.815,4.356,8.553l5.916,2.629a.5.5,0,0,1,.254.254Z" transform="translate(-3 -3)"/>
        </g>
    </symbol>
</svg>
