<svg version="1.1" xmlns="http://www.w3.org/2000/svg" viewBox="0 0 17 25">
  <symbol id="arrow-bold-left">
    <path d="M0.612,12.515c0,0.135,0.056,0.265,0.156,0.357l12.072,11.21c0.445,0.402,1.001,0.603,1.557,0.603c0.554,0,1.107-0.2,1.548-0.598c0.054-0.048,0.104-0.098,0.151-0.151c0.358-0.399,0.541-0.915,0.513-1.453c-0.029-0.537-0.265-1.032-0.665-1.392l-9.235-8.576l9.241-8.586c0.047-0.041,0.096-0.091,0.144-0.144c0.743-0.827,0.676-2.103-0.15-2.845c-0.424-0.386-0.979-0.625-1.552-0.594c-0.568,0.018-1.127,0.209-1.55,0.598L0.767,12.159C0.667,12.25,0.611,12.38,0.612,12.515z"/>
  </symbol>
</svg>