<svg version="1.1" xmlns="http://www.w3.org/2000/svg" viewBox="0 0 17 25">
  <symbol id="arrow-bold-right">
    <path d="M16.457,12.159L4.382,0.944C3.959,0.555,3.4,0.364,2.832,0.346C2.259,0.315,1.704,0.554,1.28,0.94c-0.826,0.742-0.893,2.018-0.15,2.845c0.048,0.053,0.097,0.103,0.144,0.144l9.241,8.586L1.28,21.091c-0.4,0.36-0.636,0.855-0.665,1.392c-0.028,0.538,0.155,1.054,0.513,1.453c0.047,0.053,0.097,0.103,0.151,0.151c0.441,0.398,0.994,0.598,1.548,0.598c0.556,0,1.112-0.201,1.557-0.603l12.072-11.21c0.1-0.092,0.156-0.222,0.156-0.357C16.613,12.38,16.557,12.25,16.457,12.159z"/>
  </symbol>
</svg>