<svg version="1.1" xmlns="http://www.w3.org/2000/svg" viewBox="0 0 18.44 24">
  <symbol id="beginners">
<path d="M17.31,0.516c-0.552-0.309-1.23-0.285-1.759,0.063c-0.014,0.003-0.028,0.01-0.039,0.02L9.219,5.523L2.926,0.598C2.913,0.592,2.9,0.586,2.887,0.578C2.084,0.061,1.013,0.293,0.495,1.096c-0.181,0.28-0.276,0.607-0.276,0.94v14.222c0.003,0.545,0.259,1.058,0.694,1.387l8.062,6.031l0,0c0.014,0.006,0.027,0.014,0.039,0.022l0.02,0.009l0,0h0.01c0.02,0.01,0.049,0.019,0.068,0.026c0.006-0.002,0.013-0.002,0.02,0c0.029,0.007,0.058,0.011,0.088,0.011l0,0c0.026,0.001,0.053-0.003,0.078-0.011c0.01-0.001,0.02-0.001,0.029,0c0.02-0.008,0.049-0.017,0.068-0.026h0.01l0,0l0.02-0.009c0.012-0.009,0.025-0.016,0.039-0.022l0,0l8.062-6.031c0.434-0.329,0.691-0.842,0.694-1.387V2.031C18.221,1.397,17.871,0.814,17.31,0.516z M1.041,16.258V2.031c0.007-0.503,0.415-0.909,0.918-0.913C2.125,1.12,2.287,1.167,2.428,1.255l6.381,4.984v16.284l-7.397-5.54C1.18,16.814,1.042,16.545,1.041,16.258L1.041,16.258z"/>
  </symbol>
</svg>
