<svg xmlns="http://www.w3.org/2000/svg" viewBox="0 0 18 18">
  <symbol id="brush">
      <path d="M17.9,8.1L17.9,8.1L17.9,8.1c-0.2-1-0.5-2-1.1-2.9l0,0l0,0c-0.5-0.8-1.1-1.6-1.8-2.2l0,0l0,0c-1-1-2.2-1.8-3.5-2.4c-0.4-0.2-0.8-0.3-1.2-0.4c-0.1,0-0.3-0.1-0.3-0.1l-0.1,0l0,0h0L9.3,0L7.5,6.5L5.6,8.3L5.5,8.5l-4.6,4.6c-1.1,1.1-1.1,2.9,0,4s2.9,1.1,4,0c0,0,0,0,0,0l4.6-4.6l0.2-0.2l1.8-1.8L18,8.7L17.9,8.1z M4.2,16.5c-0.1,0.1-0.2,0.2-0.3,0.2c-0.1,0.1-0.2,0.1-0.3,0.2c-0.5,0.2-1.1,0.2-1.5-0.1l0,0c0,0-0.1,0-0.1-0.1l0,0c-0.1-0.1-0.2-0.1-0.3-0.2c-0.2-0.1-0.3-0.3-0.4-0.5c-0.3-0.6-0.2-1.3,0.1-1.8c0.1-0.1,0.1-0.2,0.2-0.3L6,9.4L8.6,12L4.2,16.5z M9,11.7L6.3,9l1.8-1.8l2.6,2.6L9,11.7z M11.2,9.6L8.4,6.8L10,1.1c0.1,0,0.2,0,0.3,0.1l0,0c0.1,0,0.1,0,0.2,0l0,0c0.1,0,0.3,0.1,0.5,0.2l0,0c0.1,0,0.1,0.1,0.2,0.1l0.1,0c0.1,0,0.1,0.1,0.2,0.1l0.1,0c0.1,0,0.2,0.1,0.2,0.1l0,0l-0.9,1.9c-0.1,0.1,0,0.3,0.1,0.3c0.1,0.1,0.3,0,0.3-0.1L12.2,2L12.4,2c0.1,0,0.1,0.1,0.2,0.1s0.1,0.1,0.2,0.1l0.1,0.1L13,2.5l0.1,0.1l0.2,0.1c0,0,0.1,0.1,0.1,0.1c0.1,0.1,0.2,0.1,0.3,0.2c0,0,0.1,0.1,0.1,0.1s0.1,0.1,0.2,0.1l0.1,0.1l0.1,0.1l-0.7,0.7c-0.1,0.1-0.1,0.3,0,0.3c0.1,0.1,0.2,0.1,0.3,0l0.7-0.7l0,0L14.7,4l0.1,0.1c0,0.1,0.1,0.1,0.1,0.1L15,4.3c0.1,0.1,0.1,0.2,0.2,0.3l0.1,0.1l0.1,0.1c0,0,0.1,0.1,0.1,0.1S15.5,5,15.6,5s0.1,0.1,0.1,0.1l0.1,0.1c0,0,0.1,0.1,0.1,0.1l0.1,0.1l0,0l-3,1.7c-0.1,0.1-0.2,0.2-0.1,0.3c0.1,0.1,0.2,0.2,0.3,0.1c0,0,0,0,0,0l3-1.7l0,0l0,0.1c0,0.1,0.1,0.1,0.1,0.2c0,0,0,0.1,0,0.1l0.1,0.2l0,0.1c0,0.1,0.1,0.1,0.1,0.2l0,0c0.1,0.3,0.2,0.5,0.3,0.8c0.1,0.2,0.1,0.4,0.1,0.5L11.2,9.6z"></path>
  </symbol>
</svg>
