<svg version="1.1" xmlns="http://www.w3.org/2000/svg" xmlns:xlink="http://www.w3.org/1999/xlink" x="0px"
	 y="0px" width="22.12px" height="23.906px" viewBox="0 0 22.12 23.906" style="enable-background:new 0 0 22.12 23.906;"
	 xml:space="preserve">
<path id="calendar" style="fill-rule:evenodd;clip-rule:evenodd;fill:#F36B30;" d="M18.9,3.403h-0.89V2.275
	c0.036-1.221-0.924-2.239-2.144-2.276s-2.24,0.924-2.276,2.144c-0.001,0.044-0.001,0.088,0,0.132v1.128H8.52V2.275
	c0.036-1.218-0.921-2.234-2.139-2.271S4.146,0.926,4.11,2.143c-0.001,0.044-0.001,0.088,0,0.132v1.128h-0.9
	c-1.798,0.027-3.237,1.501-3.22,3.3v13.884c-0.017,1.799,1.422,3.273,3.22,3.3H18.9c1.8-0.023,3.241-1.5,3.22-3.3V6.705
	C22.142,4.904,20.701,3.426,18.9,3.403z M14.62,2.275c-0.003-0.649,0.521-1.177,1.17-1.18c0.649-0.003,1.177,0.521,1.18,1.17
	c0,0.004,0,0.007,0,0.011v3.4c0.003,0.649-0.521,1.177-1.17,1.18c-0.649,0.003-1.177-0.521-1.18-1.17c0-0.004,0-0.007,0-0.011V2.275
	z M5.14,2.275c-0.003-0.649,0.521-1.177,1.17-1.18c0.649-0.003,1.177,0.521,1.18,1.17c0,0.004,0,0.007,0,0.011v3.4
	c0.003,0.649-0.521,1.177-1.17,1.18c-0.649,0.003-1.177-0.521-1.18-1.17c0-0.004,0-0.007,0-0.011V2.275z M21.09,20.589
	c0.013,1.223-0.967,2.227-2.19,2.242H3.21c-1.22-0.02-2.195-1.022-2.18-2.242V10.044h20.06L21.09,20.589L21.09,20.589z M21.09,8.984
	H1.03V6.705c-0.015-1.22,0.96-2.222,2.18-2.242h0.9v1.215C4.074,6.896,5.031,7.913,6.249,7.949S8.484,7.028,8.52,5.81
	c0.001-0.044,0.001-0.088,0-0.132V4.463h5.07v1.215c-0.036,1.221,0.924,2.239,2.144,2.276s2.24-0.924,2.276-2.144
	c0.001-0.044,0.001-0.088,0-0.132V4.463h0.89c1.223,0.015,2.203,1.019,2.19,2.242V8.984z M5.31,14.003
	c0.632,0.013,1.155-0.488,1.168-1.12c0.013-0.632-0.488-1.154-1.12-1.168c-0.632-0.013-1.154,0.488-1.168,1.12
	c0,0.008,0,0.016,0,0.025c-0.008,0.623,0.49,1.135,1.113,1.143C5.305,14.003,5.308,14.003,5.31,14.003L5.31,14.003z M9.14,14.003
	c0.632,0.013,1.155-0.488,1.168-1.12c0.013-0.632-0.488-1.154-1.12-1.168c-0.632-0.013-1.154,0.488-1.168,1.12
	c0,0.008,0,0.016,0,0.025c-0.007,0.624,0.493,1.136,1.117,1.143C9.138,14.003,9.139,14.003,9.14,14.003L9.14,14.003z M12.97,14.003
	c0.632,0.019,1.159-0.478,1.177-1.109s-0.478-1.159-1.109-1.177c-0.631-0.019-1.159,0.478-1.177,1.109c0,0.011,0,0.023,0,0.034
	C11.853,13.481,12.349,13.992,12.97,14.003L12.97,14.003z M5.31,18.317c0.632,0.013,1.155-0.488,1.168-1.12
	c0.013-0.632-0.488-1.154-1.12-1.168c-0.632-0.013-1.154,0.488-1.168,1.12c0,0.008,0,0.016,0,0.025
	c-0.008,0.623,0.491,1.135,1.115,1.143C5.307,18.317,5.308,18.317,5.31,18.317L5.31,18.317z M9.14,18.317
	c0.632,0.013,1.155-0.488,1.168-1.12c0.013-0.632-0.488-1.154-1.12-1.168c-0.632-0.013-1.154,0.488-1.168,1.12
	c0,0.008,0,0.016,0,0.025c-0.007,0.625,0.494,1.136,1.119,1.143C9.139,18.317,9.14,18.317,9.14,18.317L9.14,18.317z M12.97,18.317
	c0.632,0.019,1.16-0.477,1.179-1.109c0.019-0.632-0.477-1.16-1.109-1.18s-1.16,0.477-1.18,1.109c0,0.012,0,0.024,0,0.036
	C11.853,17.795,12.349,18.306,12.97,18.317L12.97,18.317z M16.81,14.003c0.632,0.013,1.155-0.488,1.168-1.12
	c0.013-0.632-0.488-1.154-1.12-1.168c-0.632-0.013-1.154,0.488-1.168,1.12c0,0.008,0,0.016,0,0.025
	c-0.008,0.623,0.49,1.135,1.113,1.143C16.805,14.003,16.808,14.003,16.81,14.003L16.81,14.003z"/>
</svg>
