<svg version="1.1" xmlns="http://www.w3.org/2000/svg" viewBox="0 0 22.12 23.906">
  <symbol id="calendar">
    <path  d="M18.677,3.646h-0.865V2.55c0.035-1.186-0.898-2.175-2.083-2.211s-2.176,0.898-2.211,2.083c-0.001,0.043-0.001,0.085,0,0.128v1.096H8.592V2.55c0.035-1.183-0.895-2.17-2.078-2.206S4.343,1.24,4.308,2.422c-0.001,0.043-0.001,0.085,0,0.128v1.096H3.433C1.687,3.672,0.289,5.104,0.305,6.852v13.489c-0.017,1.748,1.381,3.18,3.128,3.206h15.243c1.749-0.022,3.149-1.457,3.128-3.206V6.854C21.826,5.104,20.426,3.669,18.677,3.646z M14.518,2.55c-0.003-0.631,0.506-1.143,1.137-1.146c0.631-0.003,1.143,0.506,1.146,1.137c0,0.004,0,0.007,0,0.011v3.303c0.003,0.631-0.506,1.143-1.137,1.146c-0.631,0.003-1.143-0.506-1.146-1.137c0-0.004,0-0.007,0-0.011C14.518,5.854,14.518,2.55,14.518,2.55z M5.308,2.55C5.306,1.92,5.815,1.407,6.445,1.404C7.076,1.401,7.589,1.91,7.592,2.541c0,0.004,0,0.007,0,0.011v3.303c0.003,0.631-0.506,1.143-1.137,1.146S5.311,6.495,5.308,5.864c0-0.004,0-0.007,0-0.011V2.55z M20.804,20.343c0.013,1.188-0.939,2.164-2.128,2.178H3.433c-1.185-0.019-2.132-0.993-2.118-2.178V10.098h19.489V20.343L20.804,20.343z M20.804,9.068H1.316V6.854C1.301,5.669,2.248,4.695,3.433,4.676h0.874v1.18C4.273,7.04,5.203,8.028,6.386,8.063s2.171-0.895,2.206-2.078c0.001-0.043,0.001-0.085,0-0.128v-1.18h4.926v1.18c-0.035,1.186,0.898,2.175,2.083,2.211c1.185,0.036,2.176-0.898,2.211-2.083c0.001-0.043,0.001-0.085,0-0.128v-1.18h0.865c1.188,0.015,2.14,0.99,2.128,2.178V9.068z M5.474,13.944c0.614,0.013,1.122-0.474,1.135-1.088c0.013-0.614-0.474-1.121-1.088-1.135c-0.614-0.013-1.121,0.474-1.135,1.088c0,0.008,0,0.016,0,0.024c-0.008,0.605,0.476,1.103,1.081,1.11C5.469,13.944,5.472,13.944,5.474,13.944L5.474,13.944z M9.195,13.944c0.614,0.013,1.122-0.474,1.135-1.088c0.013-0.614-0.474-1.121-1.088-1.135c-0.614-0.013-1.121,0.474-1.135,1.088c0,0.008,0,0.016,0,0.024c-0.007,0.606,0.479,1.104,1.085,1.11C9.193,13.944,9.194,13.944,9.195,13.944L9.195,13.944z M12.915,13.944c0.614,0.018,1.126-0.464,1.143-1.077c0.017-0.613-0.464-1.126-1.077-1.143c-0.613-0.018-1.126,0.464-1.143,1.077c0,0.011,0,0.022,0,0.033C11.83,13.437,12.312,13.934,12.915,13.944L12.915,13.944z M5.474,18.135c0.614,0.013,1.122-0.474,1.135-1.088c0.013-0.614-0.474-1.121-1.088-1.135c-0.614-0.013-1.121,0.474-1.135,1.088c0,0.008,0,0.016,0,0.024c-0.008,0.605,0.477,1.103,1.083,1.11C5.471,18.135,5.472,18.135,5.474,18.135L5.474,18.135z M9.195,18.135c0.614,0.013,1.122-0.474,1.135-1.088c0.013-0.614-0.474-1.121-1.088-1.135C8.627,15.9,8.12,16.387,8.106,17.001c0,0.008,0,0.016,0,0.024C8.1,17.632,8.586,18.129,9.195,18.135L9.195,18.135L9.195,18.135z M12.915,18.135c0.614,0.018,1.127-0.463,1.145-1.077c0.018-0.614-0.463-1.127-1.077-1.146c-0.614-0.019-1.127,0.463-1.146,1.077c0,0.012,0,0.023,0,0.035C11.83,17.628,12.312,18.125,12.915,18.135L12.915,18.135z M16.646,13.944c0.614,0.013,1.122-0.474,1.135-1.088c0.013-0.614-0.474-1.121-1.088-1.135c-0.614-0.013-1.121,0.474-1.135,1.088c0,0.008,0,0.016,0,0.024c-0.008,0.605,0.476,1.103,1.081,1.11C16.641,13.944,16.644,13.944,16.646,13.944L16.646,13.944z"/>
  </symbol>
</svg>