<?xml version="1.0" encoding="utf-8"?>
<!-- Generator: Adobe Illustrator 27.8.1, SVG Export Plug-In . SVG Version: 6.00 Build 0)  -->
<svg version="1.1" id="レイヤー_1" xmlns="http://www.w3.org/2000/svg" xmlns:xlink="http://www.w3.org/1999/xlink" x="0px"
	 y="0px" width="35.9px" height="31.6px" viewBox="0 0 35.9 31.6" style="enable-background:new 0 0 35.9 31.6;"
	 xml:space="preserve">
<style type="text/css">
	.st0{fill-rule:evenodd;clip-rule:evenodd;fill:#A1A1A1;}
</style>
<path id="callcenter" class="st0" d="M2.5,15.6C1.6,15.9,1,16.7,1,17.7l0.2,2.9c0.1,1,0.8,1.8,1.8,2L2.5,15.6z M31.4,14.4l-2.8-0.2
	c-0.5,0-0.9,0.4-1,0.9l-0.4,7.4c0,0.5,0.3,1,0.9,1c0,0,0,0,0,0h0.2c-0.7,2.1-2.3,3.7-4.4,4.3c-0.5,0.2-1.1,0.4-1.7,0.4V28
	c0-0.6-0.5-1.1-1.1-1.1h-4.3c-0.6,0-1.1,0.5-1.1,1.1v1.8c0,0.6,0.5,1,1,1c0,0,0,0,0.1,0h4.3c0.6,0,1-0.4,1.1-0.9c0,0,0,0,0-0.1v-0.2
	c0.7-0.1,1.4-0.2,2.1-0.4c2.6-0.9,4.6-3,5.4-5.6l1.2,0.1c0.5,0,0.9-0.4,1-0.9l0.4-7.4C32.3,14.9,32,14.4,31.4,14.4
	C31.4,14.4,31.4,14.4,31.4,14.4z M4,22.8c0,0.5,0.5,0.9,1,0.9l2.8-0.2c0.5,0,0.9-0.5,0.9-1c0,0,0,0,0,0l-0.4-7.4
	c0-0.5-0.5-0.9-1-0.9l-2.8,0.2c-0.5,0-0.9,0.5-0.9,1c0,0,0,0,0,0L4,22.8z M33.4,15.6l-0.4,7c1-0.2,1.7-1,1.8-2l0.2-2.9
	C34.9,16.7,34.3,15.9,33.4,15.6z M31,13.3C30.3,6.1,24,0.8,16.7,1.4C10.5,2,5.5,7,4.9,13.3l2.2-0.1c0.7-6,6.1-10.2,12.1-9.5
	c5,0.6,8.9,4.5,9.5,9.5L31,13.3z"/>
</svg>
