<svg xmlns="http://www.w3.org/2000/svg" width="16.708" height="12.424" viewBox="0 0 16.708 12.424"><symbol id="card">
    <g transform="translate(0.5 0.5)"><path d="M2.928,5.5H15.78a1.93,1.93,0,0,1,1.928,1.928V16a1.93,1.93,0,0,1-1.928,1.928H2.928A1.93,1.93,0,0,1,1,16V7.428A1.93,1.93,0,0,1,2.928,5.5ZM15.78,16.924A.929.929,0,0,0,16.708,16V7.428A.929.929,0,0,0,15.78,6.5H2.928A.929.929,0,0,0,2,7.428V16a.929.929,0,0,0,.928.928Z" transform="translate(-1.5 -6)"/><path d="M17.208,15.5H1.5a.5.5,0,1,1,0-1H17.208a.5.5,0,0,1,0,1Z" transform="translate(-1.5 -10.716)"/></g>
</symbol></svg>
