<svg version="1.1" xmlns="http://www.w3.org/2000/svg" viewBox="0 0 35 35">
  <symbol id="cart">
<path fill-rule="evenodd" clip-rule="evenodd" d="M1.043,2.398c-0.436,0-0.789-0.353-0.789-0.789
	S0.607,0.82,1.043,0.82H6.17C6.565,0.819,6.9,1.111,6.951,1.503l0.971,4.646h26.084c0.435,0.005,0.784,0.361,0.78,0.796
	c0,0.055-0.007,0.11-0.019,0.163l-3.064,13.618c-0.058,0.387-0.39,0.674-0.781,0.676H10.466c-0.569,0.614-0.893,1.416-0.911,2.253
	c-0.003,0.256,0.041,0.511,0.13,0.751c0.06,0.198,0.166,0.379,0.31,0.528c0.25,0.254,0.595,0.39,0.951,0.376
	c4.416-0.016,8.842-0.008,13.257-0.008h6.669c0.435,0,0.787,0.353,0.787,0.788s-0.353,0.788-0.787,0.788
	c-2.113,0-2.283,0-6.669-0.008c-4.416,0-8.835,0.003-13.257,0.008c-0.786,0.02-1.544-0.289-2.093-0.851
	c-0.291-0.316-0.516-0.688-0.661-1.092c-0.143-0.411-0.214-0.844-0.21-1.279C8,22.44,8.459,21.272,9.274,20.369L6.541,7.261
	c-0.044-0.103-0.068-0.213-0.07-0.325v-0.01L6.3,6.107l-0.771-3.71H1.044L1.043,2.398z M27.177,29.181
	c1.081-0.003,1.96,0.871,1.962,1.952c0.003,1.081-0.871,1.96-1.952,1.963c-1.081,0.003-1.96-0.871-1.962-1.952
	c0-0.002,0-0.003,0-0.005C25.225,30.06,26.098,29.184,27.177,29.181L27.177,29.181z M27.177,27.449
	c2.036-0.001,3.686,1.649,3.687,3.685c0,2.036-1.649,3.686-3.685,3.687c-2.035,0.001-3.685-1.647-3.687-3.682
	C23.498,29.105,25.144,27.457,27.177,27.449L27.177,27.449z M12.458,29.181c1.081,0.003,1.955,0.881,1.952,1.962
	s-0.881,1.955-1.963,1.953c-1.079-0.003-1.952-0.878-1.952-1.958c0-1.081,0.875-1.957,1.955-1.958
	C12.454,29.181,12.456,29.181,12.458,29.181L12.458,29.181z M12.458,27.449c2.036,0.005,3.682,1.659,3.677,3.695
	s-1.659,3.682-3.695,3.677c-2.031-0.005-3.675-1.651-3.677-3.682c-0.004-2.034,1.642-3.686,3.676-3.69
	C12.446,27.449,12.452,27.449,12.458,27.449L12.458,27.449z M8.253,7.723l2.523,12.094h19.515l2.723-12.094
	C33.014,7.723,8.253,7.723,8.253,7.723z"/>
  </symbol>
</svg>