<svg version="1.1" xmlns="http://www.w3.org/2000/svg" viewBox="0 0 14 15">
  <symbol id="change">
  <path d="M10.917,2.68L9.332,4.946c1.813,1.255,2.265,3.741,1.011,5.554c-1.111,1.606-3.221,2.172-4.986,1.338c-0.106-0.049-0.208-0.103-0.309-0.162c-0.102-0.058-0.2-0.121-0.293-0.189c-0.19-0.134-0.367-0.284-0.531-0.447C2.665,9.479,2.665,6.951,4.225,5.392c0.488-0.488,1.094-0.841,1.76-1.025v1.186l2.684-2.714L5.985,0.123V1.54C2.301,2.126-0.21,5.588,0.377,9.272c0.288,1.809,1.298,3.423,2.798,4.472c0.159,0.113,0.325,0.217,0.496,0.317s0.343,0.189,0.523,0.273c3.384,1.57,7.4,0.099,8.97-3.284C14.54,8.084,13.594,4.558,10.917,2.68z"/>
  </symbol>
</svg>