<svg version="1.1" xmlns="http://www.w3.org/2000/svg"  viewBox="0 0 31.75 22.344">
  <symbol id="coupon">
    <path  d="M29.841,10.961l1.534-0.068V3.995c-0.065-2.123-1.833-3.795-3.957-3.741H4.332C2.208,0.2,0.44,1.872,0.375,3.995v14.356c0.066,2.123,1.834,3.793,3.957,3.739h23.086c2.123,0.054,3.891-1.616,3.957-3.739v-5.726l-1.534-0.065c-0.441,0.016-0.812-0.329-0.828-0.77c-0.016-0.441,0.328-0.812,0.769-0.828C29.802,10.961,29.821,10.961,29.841,10.961z M29.372,14.407v3.944c-0.032,1.049-0.905,1.875-1.954,1.848H4.332c-1.049,0.026-1.922-0.8-1.954-1.848V3.995C2.41,2.946,3.283,2.12,4.332,2.146h23.086c1.049-0.026,1.922,0.8,1.954,1.848V9.11c-1.463,0.18-2.502,1.512-2.322,2.974C27.2,13.3,28.157,14.257,29.372,14.407L29.372,14.407z M21.185,15.795h-0.889v2.052h2.364v-2.052H21.185z M21.185,12.189h-0.889v2.052h2.364v-2.052H21.185z M21.185,8.579h-0.889v2.052h2.364V8.579H21.185z M21.185,4.973h-0.889v2.052h2.364V4.973H21.185z"/>
  </symbol>
</svg>