<svg version="1.1" xmlns="http://www.w3.org/2000/svg" viewBox="0 0 23.6 16.281">
  <symbol id="eye-open">
    <path d="M11.79,16.075c-6.267,0-11.17-7.224-11.374-7.532C0.25,8.3,0.25,7.981,0.415,7.738C0.62,7.43,5.523,0.206,11.79,0.206S22.969,7.43,23.174,7.738c0.156,0.245,0.156,0.559,0,0.804C22.969,8.85,18.057,16.075,11.79,16.075z M1.897,8.141c1.092,1.475,5.185,6.491,9.893,6.491s8.801-5.017,9.903-6.491c-1.101-1.475-5.185-6.492-9.903-6.492S2.989,6.665,1.897,8.141L1.897,8.141z M11.79,12.469c-2.39,0.005-4.332-1.928-4.337-4.318s1.928-4.332,4.318-4.337c2.39-0.005,4.332,1.928,4.337,4.318c0,0.003,0,0.006,0,0.01c0.005,2.385-1.925,4.323-4.31,4.328C11.795,12.469,11.793,12.469,11.79,12.469z"/>
  </symbol>
</svg>