<svg version="1.1" xmlns="http://www.w3.org/2000/svg" viewBox="0 0 23.6 16.281">
  <symbol id="eye-close">
    <path d="M11.79,14.632c-4.708,0-8.801-5.017-9.893-6.491V8.14c0.373-0.504,1.1-1.422,2.08-2.412L2.742,4.921C1.353,6.365,0.498,7.614,0.415,7.738C0.25,7.981,0.25,8.3,0.415,8.543c0.205,0.308,5.107,7.532,11.374,7.532c1.972,0,3.802-0.722,5.399-1.713l-1.352-0.884C14.588,14.165,13.219,14.632,11.79,14.632z"/>
    <path  d="M23.174,8.543c0.156-0.245,0.156-0.559,0-0.804C22.969,7.43,18.057,0.206,11.79,0.206c-2.579,0-4.919,1.228-6.804,2.689L1.814,0.822C1.463,0.592,0.998,0.68,0.777,1.018S0.663,1.816,1.014,2.046l1.698,1.11l0,0l3.214,2.1l1.861,1.216l7.121,4.653l1.937,1.266l1.646,1.076l3.095,2.023c0.352,0.23,0.816,0.142,1.037-0.196c0.221-0.338,0.115-0.798-0.237-1.028l-2.712-1.772C21.757,10.626,23.07,8.698,23.174,8.543z M18.41,11.667l-2.686-1.756c0.243-0.542,0.385-1.138,0.384-1.771c0-0.003,0-0.006,0-0.01c-0.005-2.39-1.947-4.323-4.337-4.318c-1.269,0.003-2.397,0.561-3.187,1.432L6.271,3.735c1.601-1.166,3.501-2.086,5.519-2.086c4.718,0,8.801,5.018,9.903,6.492C21.176,8.832,19.997,10.301,18.41,11.667z"/>
  </symbol>
</svg>
