<?xml version="1.0" encoding="utf-8"?>
<!-- Generator: Adobe Illustrator 28.0.0, SVG Export Plug-In . SVG Version: 6.00 Build 0)  -->
<svg version="1.1" id="レイヤー_1" xmlns="http://www.w3.org/2000/svg" xmlns:xlink="http://www.w3.org/1999/xlink" x="0px"
	 y="0px" width="34.9px" height="34.7px" viewBox="0 0 34.9 34.7" style="enable-background:new 0 0 34.9 34.7;"
	 xml:space="preserve">
<style type="text/css">
	.st0{fill:#FFFFFF;}
</style>
<path id="Icon_awesome-facebook" class="st0" d="M34.9,17.4C34.9,7.8,27.1,0,17.4,0S0,7.8,0,17.4C0,26,6.2,33.3,14.7,34.7V22.5h-4.4
	v-5h4.4v-3.8c0-4.4,2.6-6.8,6.6-6.8c1.3,0,2.6,0.1,3.9,0.3v4.3H23c-1.4-0.2-2.6,0.8-2.8,2.2c0,0.2,0,0.4,0,0.6v3.3H25l-0.8,5h-4.1
	v12.2C28.6,33.3,34.9,26,34.9,17.4z"/>
</svg>
