<svg version="1.1" xmlns="http://www.w3.org/2000/svg" viewBox="0 0 24.9 21.5">
  <symbol id="favorite">
    <path d="M7,2.8c0.8,0,3.5,0.3,3.5,3.9c0,1.2,0.9,2.1,2.1,2.1s2.1-0.9,2.1-2.1C14.7,4,16.6,3,18.3,3c2,0,4.1,1.4,4.1,4.5c0,2.4-1.6,3.7-4.4,5.4c-0.6,0.4-1.2,0.8-1.8,1.2c-1.3,0.9-2.6,2.1-3.7,3.4c-1.1-1.2-2.4-2.4-3.8-3.3c-0.4-0.3-0.9-0.6-1.4-0.9c-2.9-1.8-4.7-3-4.7-5.6C2.6,4,5.2,2.8,7,2.8L7,2.8 M7,0.7C3.8,0.7,0.5,3,0.5,7.5c0,4.7,4.2,6.4,7,8.3c2.7,1.8,4.7,4.3,5,5.3c0.3-1,2.4-3.6,5-5.4c2.8-2,7.1-3.6,7-8.3c0-4.4-3.2-6.5-6.2-6.5c-2.9,0-5.7,1.9-5.7,5.8C12.6,2.6,9.8,0.7,7,0.7L7,0.7z"/>
  </symbol>
</svg>