<?xml version="1.0" encoding="utf-8"?>
<!-- Generator: Adobe Illustrator 27.8.1, SVG Export Plug-In . SVG Version: 6.00 Build 0)  -->
<svg version="1.1" id="レイヤー_1" xmlns="http://www.w3.org/2000/svg" xmlns:xlink="http://www.w3.org/1999/xlink" x="0px"
	 y="0px" width="25.1px" height="25.1px" viewBox="0 0 25.1 25.1" style="enable-background:new 0 0 25.1 25.1;"
	 xml:space="preserve">
<style type="text/css">
	.st0{fill-rule:evenodd;clip-rule:evenodd;fill:#A1A1A1;}
</style>
<path id="fax" class="st0" d="M9.7,15.2h11.1v-1.9H9.7V15.2z M9.7,18.4h2.6v-1.9H9.7V18.4z M14,18.4h2.6v-1.9H14V18.4z M18.2,18.4
	h2.6v-1.9h-2.6V18.4z M9.7,21.4h2.6v-1.9H9.7V21.4z M14,21.4h2.6v-1.9H14V21.4z M18.2,21.4h2.6v-1.9h-2.6V21.4z M22.2,7.4V5.2
	L17.9,1H6.4v6.4H3.1C1.9,7.4,1,8.3,1,9.5V22c0,1.1,0.9,2.1,2,2.1c0,0,0,0,0,0h19c1.1,0,2.1-0.9,2.1-2.1c0,0,0,0,0,0V9.5
	C24.1,8.4,23.3,7.5,22.2,7.4L22.2,7.4z M6.4,22.7H3.1c-0.4,0-0.7-0.3-0.7-0.7c0,0,0,0,0,0V9.5c0-0.4,0.3-0.7,0.7-0.7c0,0,0,0,0,0
	h3.3V22.7z M17.8,2.9l2.3,2.3h-2.3L17.8,2.9L17.8,2.9z M7.8,2.4h8.6v4.2h4.4v4.1h-13L7.8,2.4L7.8,2.4z M22.7,22
	c0,0.4-0.3,0.7-0.7,0.7c0,0,0,0,0,0H7.8V12.2h14.4V8.9c0.3,0,0.5,0.3,0.5,0.6L22.7,22L22.7,22z"/>
</svg>
