<?xml version="1.0" encoding="utf-8"?>
<!-- Generator: Adobe Illustrator 28.0.0, SVG Export Plug-In . SVG Version: 6.00 Build 0)  -->
<svg version="1.1" id="レイヤー_1" xmlns="http://www.w3.org/2000/svg" xmlns:xlink="http://www.w3.org/1999/xlink" x="0px"
	 y="0px" width="95.97px" height="84.56px" viewBox="0 0 95.97 84.56" style="enable-background:new 0 0 95.97 84.56;"
	 xml:space="preserve">
<path id="シェイプ_1" style="fill-rule:evenodd;clip-rule:evenodd;fill:#00AE97;" d="M89.775,35.156
	c-2.157-2.238-4.797-3.954-7.718-5.017c-0.2-3.516-1.006-6.971-2.385-10.211c-3.314-8.012-9.786-14.301-17.89-17.385
	c-3.553-1.391-7.335-2.106-11.151-2.107C43.095,0.437,35.809,3.144,30.1,8.064c-3.572,3.094-6.411,6.943-8.311,11.27
	C8.009,21.526-1.384,34.473,0.807,48.253c0.875,5.503,3.545,10.562,7.594,14.39c4.806,4.548,11.174,7.077,17.791,7.065h8.965V59.14
	l0,0v-0.03h-8.965c-8.063,0.041-14.723-6.284-15.099-14.337c-0.239-8.135,6.162-14.923,14.297-15.162
	c0.152-0.004,0.303-0.007,0.456-0.006c0.843-0.001,1.684,0.072,2.513,0.218l1.395,0.237h0.04l0.238-1.435
	C31.87,17.242,42.587,9.504,53.97,11.342c10.095,1.63,17.524,10.332,17.55,20.558c0,0.287,0,0.554-0.02,0.93l-0.04,0.485
	c-0.01,0.237-0.029,0.475-0.059,0.693l-0.089,0.673c-0.267,2.117-0.564,3.513-0.742,4.344c-0.191,0.539-0.239,1.119-0.139,1.682
	c0.228,0.794,0.965,1.332,1.791,1.306h0.01c0.33-0.018,0.648-0.135,0.91-0.337c0.48-0.343,0.884-0.781,1.188-1.286
	c0.066-0.093,0.122-0.193,0.168-0.297l0.099-0.148c0.096-0.21,0.281-0.366,0.504-0.425c5.423,0.01,9.811,4.414,9.801,9.838
	c0,0.105-0.002,0.209-0.006,0.314c-0.317,5.318-4.735,9.462-10.063,9.44H60.834v10.597h14.001c5.27,0.007,10.344-1.996,14.189-5.6
	c8.198-7.624,8.663-20.449,1.04-28.648C89.968,35.357,89.872,35.256,89.775,35.156z M63.564,50.532l-2.038-2.612l-6.531-8.46
	l-5.888-7.629c-0.26-0.36-0.674-0.576-1.118-0.584c-0.442,0.003-0.856,0.221-1.108,0.584l-5.877,7.629l-6.55,8.46l-2.028,2.612
	c-0.489,0.671-0.342,1.611,0.33,2.1c0.228,0.166,0.498,0.265,0.779,0.285h6.174c0.789,0.024,1.409,0.684,1.385,1.473
	c0,0,0,0.001,0,0.001V82.63c-0.03,0.79,0.586,1.454,1.375,1.484l0,0h11.032c0.791-0.021,1.417-0.679,1.396-1.471
	c0-0.005,0-0.009,0-0.014V54.391c-0.033-0.781,0.573-1.44,1.354-1.474c0.007,0,0.014,0,0.022-0.001h6.174
	c0.829-0.054,1.456-0.769,1.403-1.597C63.83,51.036,63.732,50.762,63.564,50.532L63.564,50.532z"/>
</svg>
