<svg version="1.1" xmlns="http://www.w3.org/2000/svg" viewBox="0 0 28.844 28.875">
  <symbol id="free-sample">
    <path d="M14.424,0.438C6.692,0.436,0.424,6.704,0.423,14.436s6.266,14.001,13.998,14.002s14.001-6.266,14.002-13.998C28.423,6.708,22.156,0.44,14.424,0.438z M11.444,15.71H8.873v0.786h2.571v1.179H8.873v2.134H6.975v-2.134H4.402v-1.179h2.573V15.71H4.402v-1.179h2.371l-2.318-3.437h1.97l1.493,2.215l1.493-2.215h1.976L9.07,14.532h2.37v1.179H11.444z M21.285,18.506c-1.124,1.998-3.654,2.706-5.652,1.582c-0.662-0.373-1.21-0.92-1.582-1.582c-1.744-2.771-1.744-6.297,0-9.069c1.127-1.998,3.66-2.703,5.658-1.576c0.659,0.372,1.204,0.917,1.576,1.576C22.933,12.15,22.737,15.674,21.285,18.506L21.285,18.506z M17.67,10.199c-0.666,0.067-1.25,0.477-1.539,1.081c-0.926,1.677-0.926,3.713,0,5.39c0.305,0.85,1.241,1.291,2.091,0.987c0.46-0.165,0.822-0.527,0.987-0.987c0.928-1.677,0.928-3.713,0-5.39C18.919,10.676,18.336,10.266,17.67,10.199z"/>
  </symbol>
</svg>