<svg xmlns="http://www.w3.org/2000/svg" width="16.034" height="15.013" viewBox="0 0 16.034 15.013">
  <g transform="translate(0 -16.314)" id="gift">
    <g transform="translate(0 16.314)">
      <path d="M15.032,20.3H11.861a3.894,3.894,0,0,0,.559-.448,2.1,2.1,0,0,0,0-2.948,2.119,2.119,0,0,0-2.939,0c-.434.436-1.587,2.211-1.428,3.4H7.981c.158-1.186-.994-2.96-1.428-3.4a2.119,2.119,0,0,0-2.939,0,2.1,2.1,0,0,0,0,2.948,3.966,3.966,0,0,0,.56.448H1a1,1,0,0,0-1,1V23.81a.5.5,0,0,0,.5.5H1v6.013a1,1,0,0,0,1,1H14.03a1,1,0,0,0,1-1V24.312h.5a.5.5,0,0,0,.5-.5V21.305A1,1,0,0,0,15.032,20.3ZM4.324,17.613a1.068,1.068,0,0,1,1.518,0c.675.679,1.347,2.415,1.113,2.657a.33.33,0,0,1-.185.033,4.928,4.928,0,0,1-2.446-1.154A1.093,1.093,0,0,1,4.324,17.613ZM7.516,30.324H2V24.312H7.516Zm0-7.015H1v-2H7.516Zm2.676-5.7a1.08,1.08,0,0,1,1.518,1.535A4.928,4.928,0,0,1,9.264,20.3a.329.329,0,0,1-.186-.033C8.845,20.028,9.516,18.293,10.192,17.613ZM14.03,30.324H8.518V24.312H14.03Zm1-7.015H8.518v-2h6.514Z" transform="translate(0 -16.314)"/>
    </g>
  </g>
</svg>
