<svg xmlns="http://www.w3.org/2000/svg" viewBox="0 0 20.4 18">
  <symbol id="heart">
      <path d="M10.2,18c-0.2,0-0.4-0.1-0.5-0.2L1.5,9.6c-2.2-2.3-2.1-5.9,0.2-8.1c1.1-1.1,2.5-1.6,4.1-1.6c1.5,0,3,0.7,4,1.8l0.4,0.4l0.4-0.4C11.7,0.6,13.2,0,14.7,0c0,0,0,0,0,0c1.5,0,2.9,0.6,4,1.6c0,0,0,0,0.1,0l0,0c1.1,1.1,1.7,2.5,1.7,4.1c0,1.5-0.6,3-1.7,4.1l-8,8C10.6,17.9,10.4,18,10.2,18z M5.7,1.4c-1.1,0-2.1,0.4-2.9,1.2C1,4.2,1,6.9,2.6,8.6l7.6,7.6l7.5-7.5c0.8-0.8,1.2-1.9,1.2-3c0-1.1-0.4-2.2-1.2-2.9c0,0,0,0,0,0c-0.8-0.8-1.9-1.2-3-1.2c0,0,0,0,0,0c-1.1,0-2.2,0.4-3,1.2l-1,1C10.5,4,10,4,9.7,3.7l-1-1C7.9,1.9,6.8,1.4,5.7,1.4z"></path>
  </symbol>
</svg>
