<svg version="1.1" xmlns="http://www.w3.org/2000/svg" viewBox="0 0 16.81 16.813">
  <symbol id="history">
    <path d="M10.968,8.164H8.96V5.232C8.964,4.79,8.609,4.429,8.168,4.425C7.726,4.421,7.365,4.776,7.361,5.217c0,0.005,0,0.01,0,0.014v3.73c0.002,0.441,0.358,0.798,0.799,0.8h2.807c0.441,0,0.799-0.358,0.799-0.799C11.767,8.521,11.409,8.164,10.968,8.164L10.968,8.164zM8.398,0.408c-4.415,0-7.993,3.579-7.993,7.994c0,0.218,0.01,0.434,0.029,0.648h1.97c-0.027-0.215-0.04-0.431-0.038-0.648c0.002-3.33,2.702-6.028,6.032-6.026s6.028,2.702,6.027,6.032c-0.002,3.33-2.703,6.028-6.033,6.026c-1.163-0.001-2.301-0.337-3.276-0.97l0.98-1.075c0.072-0.073,0.098-0.181,0.067-0.279c-0.036-0.096-0.119-0.166-0.219-0.186L1.3,11.114c-0.019,0-0.038,0-0.057,0c-0.078-0.001-0.151,0.034-0.2,0.095c-0.068,0.068-0.093,0.168-0.067,0.261l1.228,4.553c0.027,0.097,0.103,0.173,0.2,0.2c0.022,0.005,0.044,0.008,0.067,0.009c0.081,0.002,0.158-0.033,0.209-0.095l1.104-1.204c3.605,2.553,8.597,1.7,11.15-1.904s1.7-8.597-1.904-11.15C11.675,0.92,10.057,0.406,8.398,0.408z"/>
  </symbol>
</svg>
