<svg xmlns="http://www.w3.org/2000/svg" xmlns:xlink="http://www.w3.org/1999/xlink" width="50" height="50" viewBox="0 0 50 50"><defs><clipPath id="a"><circle cx="25" cy="25" r="25" transform="translate(103 644)" fill="#5d5d5d"/></clipPath></defs><g transform="translate(-343 -857)"><circle cx="25" cy="25" r="25" transform="translate(343 857)" fill="#e07409"/><g transform="translate(240 213)" clip-path="url(#a)"><g clip-path="url(#a)"><path d="M48.847,47.749c-.832-3.674-5.581-5.465-7.222-6.043a53.842,53.842,0,0,0-6.02-1.155,6.117,6.117,0,0,1-2.785-1.283c-.462-.555-.185-5.7-.185-5.7a17.138,17.138,0,0,0,1.317-2.507,32.342,32.342,0,0,0,.971-4.379s.947,0,1.283-1.664c.358-1.814.924-2.519.855-3.871-.069-1.329-.8-1.294-.8-1.294a20.259,20.259,0,0,0,.786-5.928C37.153,9.18,33.433,4.5,26.7,4.5c-6.829,0-10.469,4.68-10.365,9.429a21.131,21.131,0,0,0,.774,5.928s-.728-.035-.8,1.294c-.069,1.352.5,2.057.855,3.871.324,1.664,1.283,1.664,1.283,1.664a32.342,32.342,0,0,0,.971,4.379,17.139,17.139,0,0,0,1.317,2.507s.277,5.142-.185,5.7a6.117,6.117,0,0,1-2.785,1.283,53.842,53.842,0,0,0-6.02,1.155c-1.641.578-6.39,2.369-7.222,6.043a.924.924,0,0,0,.913,1.121h42.51A.922.922,0,0,0,48.847,47.749Z" transform="translate(101.315 645.13)" fill="#fff"/></g></g><g transform="translate(343 857)" fill="none" stroke="#df7408" stroke-width="1"><circle cx="25" cy="25" r="25" stroke="none"/><circle cx="25" cy="25" r="24.5" fill="none"/></g></g></svg>