<?xml version="1.0" encoding="utf-8"?>
<!-- Generator: Adobe Illustrator 28.0.0, SVG Export Plug-In . SVG Version: 6.00 Build 0)  -->
<svg version="1.1" id="information_00000003082550224474954160000013075223201535188362_"
	 xmlns="http://www.w3.org/2000/svg" xmlns:xlink="http://www.w3.org/1999/xlink" x="0px" y="0px" width="30px" height="25px"
	 viewBox="0 0 30 25" style="enable-background:new 0 0 30 25;" xml:space="preserve">
<path id="information" style="fill-rule:evenodd;clip-rule:evenodd;" d="M28.005,12.417c-0.002,3.284-1.355,6.423-3.74,8.681
	c-0.305,0.291-0.785,0.291-1.09,0c-0.287-0.282-0.291-0.743-0.009-1.03c0.003-0.003,0.006-0.006,0.009-0.008
	c4.221-3.977,4.419-10.622,0.442-14.843c-0.143-0.152-0.291-0.299-0.442-0.442c-0.288-0.271-0.301-0.724-0.03-1.012
	c0.01-0.01,0.02-0.02,0.03-0.03c0.307-0.286,0.783-0.286,1.09,0C26.65,5.992,28.002,9.132,28.005,12.417z M20.765,7.088
	c-0.303-0.286-0.777-0.286-1.08,0c-0.288,0.272-0.301,0.726-0.03,1.014c0.01,0.01,0.02,0.02,0.03,0.029
	c2.366,2.229,2.478,5.955,0.248,8.322c-0.08,0.085-0.163,0.168-0.248,0.248c-0.287,0.269-0.302,0.721-0.032,1.008
	c0.01,0.011,0.021,0.022,0.032,0.032c0.145,0.14,0.339,0.218,0.54,0.217c0.202,0.003,0.396-0.076,0.54-0.217
	c2.942-2.771,3.08-7.403,0.308-10.345C20.974,7.291,20.871,7.188,20.765,7.088L20.765,7.088z M17.955,12.493
	c-0.008,1.173-0.562,2.275-1.5,2.98v6.571c-0.021,0.417-0.377,0.738-0.794,0.716c-0.387-0.02-0.697-0.329-0.716-0.716v-0.067
	c-0.144-0.047-0.281-0.111-0.41-0.191l-5.18-3.143c-0.57-0.344-1.36-0.823-2.09-1.268h-2.74c-1.38,0.028-2.522-1.069-2.55-2.449
	c0-0.002,0-0.005,0-0.007v-4.854C2,8.685,3.139,7.585,4.519,7.61c0.002,0,0.004,0,0.006,0h2.73c0.74-0.447,1.53-0.928,2.1-1.269
	l5.18-3.141c0.128-0.081,0.266-0.145,0.41-0.192V2.941c0-0.417,0.338-0.755,0.755-0.755c0.417,0,0.755,0.338,0.755,0.755v6.571
	C17.392,10.217,17.947,11.32,17.955,12.493L17.955,12.493z M6.305,8.593h-1.78c-0.828-0.017-1.513,0.641-1.53,1.469
	c0,0.002,0,0.003,0,0.005v4.854c0.014,0.828,0.697,1.488,1.525,1.474c0.002,0,0.003,0,0.005,0h1.78v-7.8V8.593z M15.455,4.112
	l-5.56,3.062l-2.21,1.343l-0.34,0.2v7.554l0.67,0.405l1.88,1.138l5.56,3.062V4.11L15.455,4.112z"/>
</svg>
