<svg version="1.1" xmlns="http://www.w3.org/2000/svg" viewBox="0 0 27.85 22">
  <symbol id="information">
    <path d="M26.99,10.944c-0.002,3.282-1.37,6.46-3.755,8.717c-0.162,0.155-0.371,0.232-0.579,0.232c-0.209,0-0.418-0.077-0.58-0.232c-0.307-0.302-0.311-0.795-0.009-1.101l0.009-0.01c2.032-1.914,3.197-4.505,3.28-7.295s-0.925-5.445-2.839-7.477c-0.145-0.153-0.293-0.301-0.441-0.44c-0.307-0.291-0.321-0.776-0.031-1.083c0.011-0.011,0.021-0.022,0.031-0.032c0.324-0.302,0.835-0.303,1.159,0C25.62,4.482,26.988,7.661,26.99,10.944z M16.94,11.02c-0.007,1.173-0.567,2.294-1.5,3.004v6.547c-0.022,0.432-0.379,0.767-0.805,0.767c-0.014,0-0.027,0-0.042-0.001c-0.414-0.021-0.742-0.349-0.763-0.763V20.54c-0.136-0.048-0.266-0.109-0.387-0.185l-5.179-3.143c-0.567-0.342-1.352-0.818-2.078-1.261H3.46c-0.017,0.001-0.034,0.001-0.051,0.001c-1.382,0-2.521-1.11-2.548-2.499V8.592C0.872,7.91,1.149,7.274,1.639,6.801c0.479-0.462,1.105-0.715,1.769-0.715c0.016,0,0.032,0,0.047,0h2.721l0.694-0.42c0.51-0.309,1.003-0.608,1.394-0.842l5.18-3.141c0.121-0.076,0.251-0.138,0.386-0.185V1.468c0-0.444,0.361-0.805,0.805-0.805s0.805,0.361,0.805,0.805v6.546C16.371,8.725,16.932,9.847,16.94,11.02z M5.191,7.169H3.46c-0.01,0-0.02,0-0.03,0c-0.787,0-1.434,0.631-1.451,1.42v4.858c0.014,0.79,0.662,1.424,1.449,1.424c0.009,0,0.017,0,0.026,0h1.736V7.169z M14.34,2.723L8.854,5.745L6.33,7.272v7.497l2.526,1.528l5.484,3.021V2.723z M20.044,5.889c-0.103-0.109-0.207-0.213-0.31-0.31v0c-0.323-0.304-0.829-0.303-1.148,0c-0.308,0.291-0.322,0.777-0.031,1.085c0.01,0.011,0.021,0.021,0.031,0.031c2.343,2.207,2.453,5.908,0.246,8.25c-0.07,0.075-0.148,0.154-0.246,0.247c-0.148,0.139-0.234,0.327-0.24,0.531c-0.007,0.204,0.066,0.398,0.205,0.546c0.007,0.009,0.016,0.017,0.023,0.024l0.011,0.011c0.154,0.148,0.358,0.23,0.575,0.23c0.002,0,0.005,0,0.007,0c0.211,0,0.418-0.084,0.567-0.23C22.692,13.518,22.83,8.846,20.044,5.889z"/>
  </symbol>
</svg>