<svg xmlns="http://www.w3.org/2000/svg" width="13.216" height="18.3" viewBox="0 0 13.216 18.3">
    <symbol id="leave">
        <g transform="translate(0.5 0.5)">
            <g transform="translate(0 0)">
                <path d="M2-.5h8.216a2.5,2.5,0,0,1,2.5,2.5V15.3a2.5,2.5,0,0,1-2.5,2.5H2A2.5,2.5,0,0,1-.5,15.3V2A2.5,2.5,0,0,1,2-.5Zm8.216,17.3a1.5,1.5,0,0,0,1.5-1.5V2a1.5,1.5,0,0,0-1.5-1.5H2A1.5,1.5,0,0,0,.5,2V15.3A1.5,1.5,0,0,0,2,16.8Z" />
                <path d="M9.787,24.188l-.574-.819,5.051-3.545V10.408L9.279,7.948l.442-.9,5.264,2.6a.5.5,0,0,1,.279.448v9.987a.5.5,0,0,1-.213.409Z" transform="translate(-9.199 -6.989)" />
                <ellipse cy="1.474" ry="1.474" transform="translate(3.703 6.921)" fill="#fff"/>
                <path d="M0,0S0,.66,0,1.474,0,2.949,0,2.949s0-.66,0-1.474S0,0,0,0Z" transform="translate(3.703 6.921)" />
            </g>
            <path d="M.471,0c.26,0,.471.422.471.942s-.211.942-.471.942S0,1.463,0,.942.211,0,.471,0Z" transform="translate(3.541 7.395)" />
        </g>
    </symbol>
</svg>
