<?xml version="1.0" encoding="utf-8"?>
<!-- Generator: Adobe Illustrator 28.0.0, SVG Export Plug-In . SVG Version: 6.00 Build 0)  -->
<svg version="1.1" id="レイヤー_1" xmlns="http://www.w3.org/2000/svg" xmlns:xlink="http://www.w3.org/1999/xlink" x="0px"
	 y="0px" width="36px" height="34.3px" viewBox="0 0 36 34.3" style="enable-background:new 0 0 36 34.3;" xml:space="preserve">
<style type="text/css">
	.st0{fill:#FFFFFF;}
</style>
<path id="Icon_simple-line" class="st0" d="M29,13.9c0.5,0,0.9,0.4,0.9,0.9s-0.4,0.9-0.9,0.9h-2.6v1.7H29c0.5,0,0.9,0.4,0.9,0.9
	s-0.4,0.9-0.9,0.9h-3.6c-0.5,0-0.9-0.4-0.9-0.9v-7.2c0-0.5,0.4-0.9,0.9-0.9h3.6c0.5,0,0.9,0.4,0.9,0.9c0,0.5-0.4,0.9-0.9,0.9h-2.6
	v1.7H29L29,13.9z M23.3,18.5c0,0.4-0.3,0.8-0.6,0.9c-0.1,0-0.2,0-0.3,0c-0.3,0-0.6-0.1-0.8-0.4l-3.7-5v4.4c0,0.5-0.4,1-0.9,1
	c-0.5,0-1-0.4-1-0.9c0,0,0,0,0-0.1v-7.2c0-0.4,0.3-0.8,0.6-0.9c0.1,0,0.2,0,0.3-0.1c0.3,0,0.6,0.1,0.7,0.4l3.7,5v-4.4
	c0-0.5,0.4-0.9,0.9-0.9c0.5,0,0.9,0.4,0.9,0.9c0,0,0,0,0,0L23.3,18.5L23.3,18.5z M14.7,18.5c0,0.5-0.4,1-0.9,1c-0.5,0-1-0.4-1-0.9
	c0,0,0,0,0-0.1v-7.2c0-0.5,0.4-1,0.9-1c0.5,0,1,0.4,1,0.9c0,0,0,0,0,0.1V18.5z M11,19.4H7.4c-0.5,0-0.9-0.4-0.9-0.9v-7.2
	c0-0.5,0.4-0.9,0.9-0.9s0.9,0.4,0.9,0.9l0,0v6.2H11c0.5,0,0.9,0.4,0.9,0.9S11.5,19.4,11,19.4 M36,14.6C36,6.6,27.9,0,18,0
	S0,6.6,0,14.6C0,21.8,6.4,27.9,15.1,29c0.6,0.1,1.4,0.4,1.6,0.9c0.1,0.5,0.2,1.1,0.1,1.6l-0.2,1.5c-0.1,0.5-0.4,1.8,1.6,1
	s10.4-6.1,14.2-10.5C34.6,21.2,35.9,18,36,14.6"/>
</svg>
