<svg xmlns="http://www.w3.org/2000/svg" width="15.137" height="16.708" viewBox="0 0 15.137 16.708"><symbol id="lock-pw">
    <g transform="translate(0.5 0.5)"><path d="M6.071,16h11a2.073,2.073,0,0,1,2.071,2.071v5.5a2.073,2.073,0,0,1-2.071,2.071h-11A2.073,2.073,0,0,1,4,23.569v-5.5A2.073,2.073,0,0,1,6.071,16Zm11,8.64a1.072,1.072,0,0,0,1.071-1.071v-5.5A1.072,1.072,0,0,0,17.066,17h-11A1.072,1.072,0,0,0,5,18.071v5.5A1.072,1.072,0,0,0,6.071,24.64Z" transform="translate(-4.5 -9.431)"/><path d="M18.354,10.569a.5.5,0,0,1-.5-.5V6.927a3.427,3.427,0,1,0-6.854,0v3.142a.5.5,0,0,1-1,0V6.927a4.427,4.427,0,1,1,8.854,0v3.142A.5.5,0,0,1,18.354,10.569Z" transform="translate(-7.358 -3)"/></g>
</symbol></svg>
