<svg version="1.1" xmlns="http://www.w3.org/2000/svg" viewBox="0 0 42 35">
  <symbol id="login">
    <path d="M15.619,29.111c-0.021-0.001-0.042-0.001-0.062,0h-5.85v-6.176c-0.004-0.538-0.443-0.972-0.982-0.968c-0.533,0.004-0.964,0.435-0.968,0.968v7.134c0.007,0.534,0.446,0.962,0.98,0.955V31.02h6.82c0.527,0.017,0.968-0.396,0.985-0.924C16.558,29.568,16.146,29.128,15.619,29.111z M8.737,12.906c0.529,0.007,0.963-0.415,0.97-0.944c0-0.003,0-0.006,0-0.009V5.779h5.85c0.527,0,0.955-0.427,0.955-0.955c0-0.527-0.427-0.955-0.955-0.955c0,0,0,0-0.001,0H8.737c-0.534-0.007-0.973,0.42-0.98,0.954v7.135C7.766,12.49,8.205,12.914,8.737,12.906z M40.146,2.346l-18.85-1.815c-0.273-0.025-0.544,0.063-0.75,0.244c-0.201,0.178-0.317,0.432-0.32,0.7v32.062c0.001,0.271,0.117,0.528,0.32,0.707c0.182,0.162,0.417,0.25,0.66,0.249c0.03,0.001,0.06-0.001,0.09-0.005l18.85-1.813c0.497-0.042,0.881-0.453,0.89-0.951V3.296C41.028,2.798,40.643,2.387,40.146,2.346zM39.076,30.86l-16.89,1.624V2.535l16.89,1.625V30.86z M26.817,19.607h0.31c0.002,0,0.005,0,0.007,0c0.634-0.002,1.145-0.518,1.143-1.151v-2.913c0-0.002,0-0.004,0-0.006c-0.001-0.634-0.516-1.147-1.15-1.146h-0.31c-0.635,0.002-1.148,0.516-1.15,1.151v2.914C25.669,19.091,26.182,19.605,26.817,19.607z M13.812,12.065c-0.19-0.2-0.454-0.314-0.73-0.314v0.001c-0.241,0.002-0.473,0.094-0.65,0.257c-0.007,0.006-0.013,0.012-0.019,0.017c-0.382,0.354-0.405,0.951-0.051,1.333l2.973,3.19l-1.362-0.002c0,0-0.012,0.002-0.02,0.003H1.922v-0.004c-0.529,0-0.958,0.429-0.958,0.958c0,0.529,0.429,0.958,0.958,0.958h13.424l-2.984,3.205c-0.007,0.007-0.013,0.015-0.02,0.022c-0.341,0.391-0.301,0.984,0.09,1.325c0.401,0.356,1.014,0.328,1.38-0.065l4.47-4.8c0.34-0.361,0.34-0.923,0-1.284L13.812,12.065z"	/>
  </symbol>
</svg>