<svg version="1.1" xmlns="http://www.w3.org/2000/svg" viewBox="0 0 45 35">
  <symbol id="logout">
<path d="M23.971,34.51c0.03,0.001,0.06-0.001,0.09-0.005L42.93,32.69c0.497-0.042,0.882-0.453,0.891-0.952V3.282c-0.009-0.499-0.394-0.91-0.891-0.951L24.061,0.514c-0.273-0.025-0.544,0.063-0.751,0.244c-0.201,0.178-0.317,0.432-0.32,0.701v32.094c0.001,0.271,0.118,0.528,0.32,0.708C23.493,34.422,23.728,34.511,23.971,34.51z M41.859,30.874l-16.907,1.625V2.52l16.907,1.627V30.874L41.859,30.874z M11.489,12.901c0.529,0.007,0.964-0.416,0.971-0.945c0-0.003,0-0.006,0-0.009v-6.18h5.856c0.528,0,0.956-0.428,0.956-0.956c0-0.528-0.428-0.956-0.956-0.956c0,0,0,0-0.001,0h-6.827c-0.534-0.007-0.974,0.42-0.981,0.955c0,0,0,0,0,0v7.142C10.517,12.485,10.956,12.91,11.489,12.901z M11.489,31.033h6.827c0.528,0.017,0.969-0.397,0.986-0.924c0.017-0.528-0.397-0.969-0.924-0.986c-0.021-0.001-0.042-0.001-0.062,0H12.46V22.94c-0.004-0.539-0.444-0.973-0.983-0.969c-0.533,0.004-0.965,0.435-0.969,0.969v7.141c0.007,0.535,0.446,0.963,0.981,0.956V31.033z M29.587,14.388h0.31c0.635-0.001,1.15,0.513,1.151,1.147c0,0.002,0,0.004,0,0.006v2.916c0.002,0.634-0.51,1.15-1.144,1.152c-0.002,0-0.005,0-0.007,0h-0.31c-0.635-0.002-1.149-0.517-1.151-1.152V15.54C28.438,14.905,28.952,14.39,29.587,14.388z M18.854,17.509c0,0.53-0.429,0.959-0.959,0.959v-0.004H4.467l2.978,3.195c0.354,0.382,0.332,0.98-0.051,1.334c-0.006,0.006-0.013,0.012-0.019,0.017c-0.177,0.164-0.409,0.255-0.651,0.257v0.001c-0.276,0-0.541-0.114-0.731-0.314l-4.474-4.805c-0.34-0.361-0.34-0.924,0-1.285l4.474-4.805c0.367-0.393,0.979-0.422,1.381-0.065c0.391,0.341,0.431,0.935,0.09,1.326c-0.007,0.007-0.013,0.015-0.02,0.022L4.458,16.55h13.438C18.425,16.55,18.854,16.979,18.854,17.509z"/>
  </symbol>
</svg>
