<svg version="1.1" xmlns="http://www.w3.org/2000/svg" viewBox="0 0 30 31">
  <symbol id="member">
<path d="M29.739,28.735v1.781H15.046h-0.044H0.261v-1.781c0.059-5.714,3.445-10.87,8.665-13.196c0.566,0.471,1.188,0.871,1.851,1.192c-5.172,1.733-8.679,6.549-8.742,12.003v0.001h12.969h0.042h12.919v-0.001c-0.063-5.454-3.571-10.27-8.742-12.003c0.663-0.321,1.285-0.721,1.851-1.192C26.294,17.866,29.68,23.021,29.739,28.735zM7.408,8.137c0-0.02,0-0.04,0-0.06c0.034-4.209,3.473-7.594,7.682-7.56c4.208,0.034,7.594,3.474,7.56,7.682c-0.034,4.209-3.473,7.594-7.682,7.56C10.777,15.738,7.395,12.328,7.408,8.137z M9.182,8.187c0.027,3.223,2.66,5.813,5.883,5.786s5.813-2.66,5.786-5.883c-0.027-3.223-2.66-5.813-5.883-5.786c-0.001,0-0.002,0-0.002,0c-3.208,0.014-5.798,2.625-5.784,5.833C9.182,8.153,9.182,8.171,9.182,8.187z"/>
  </symbol>
</svg>