<svg version="1.1" xmlns="http://www.w3.org/2000/svg" viewBox="0 0 60 50">
  <symbol id="menu">
    <path d="M2.405,0.943h55.191c0.828,0,1.5,0.672,1.5,1.5v1.654c0,0.828-0.672,1.5-1.5,1.5H2.405c-0.828,0-1.5-0.672-1.5-1.5V2.443C0.905,1.614,1.576,0.943,2.405,0.943z M2.405,22.674h55.191c0.828,0,1.5,0.672,1.5,1.5v1.653c0,0.828-0.672,1.5-1.5,1.5l0,0H2.405c-0.828,0-1.5-0.672-1.5-1.5v-1.653C0.905,23.345,1.576,22.674,2.405,22.674z M2.405,44.403h55.191c0.828,0,1.5,0.672,1.5,1.5v1.654c0,0.828-0.672,1.5-1.5,1.5H2.405c-0.828,0-1.5-0.672-1.5-1.5v-1.654C0.905,45.075,1.576,44.403,2.405,44.403z"/>
  </symbol>
</svg>