<svg xmlns="http://www.w3.org/2000/svg">
  <symbol id="icon01" width="15.1" height="16.7" viewBox="0 0 15.1 16.7">
    <path d="M13.1,16.7h-11c-1.1,0-2.1-0.9-2.1-2.1V6c0-0.2,0.1-0.3,0.2-0.4l7.1-5.5C7.4,0,7.7,0,7.9,0.1l7.1,5.5c0.1,0.1,0.2,0.2,0.2,0.4v8.6C15.1,15.8,14.2,16.7,13.1,16.7z M1,6.2v8.4c0,0.6,0.5,1.1,1.1,1.1h11c0.6,0,1.1-0.5,1.1-1.1V6.2L7.6,1.1L1,6.2z"/>
    <path d="M9.9,16.7c-0.3,0-0.5-0.2-0.5-0.5V8.9H5.7v7.4c0,0.3-0.2,0.5-0.5,0.5s-0.5-0.2-0.5-0.5V8.4c0-0.3,0.2-0.5,0.5-0.5h4.7c0.3,0,0.5,0.2,0.5,0.5v7.9C10.4,16.5,10.2,16.7,9.9,16.7z"/>
  </symbol>
  <symbol id="icon02" width="29" height="32.2" viewBox="0 0 29 32.2">
    <path d="M14.5,32c-0.7,0-1.4-0.2-2-0.5L2,25.5c-1.2-0.7-2-2-2-3.5V10c0-1.4,0.8-2.8,2-3.5l10.5-6c1.2-0.7,2.8-0.7,4,0l10.5,6c1.2,0.7,2,2,2,3.5v12v0c0,1.4-0.8,2.7-2,3.5l-10.5,6C15.9,31.9,15.2,32,14.5,32z M14.5,2c-0.3,0-0.7,0.1-1,0.3L3,8.3c-0.6,0.4-1,1-1,1.7v12c0,0.7,0.4,1.4,1,1.7l10.5,6c0.6,0.4,1.4,0.4,2,0l10.5-6c0.6-0.4,1-1,1-1.7V10c0-0.7-0.4-1.4-1-1.7l-10.5-6C15.2,2.1,14.8,2,14.5,2z M28,22L28,22L28,22z"/>
    <path d="M14.5,17.1c-0.2,0-0.3,0-0.5-0.1L0.9,9.3C0.4,9.1,0.3,8.5,0.5,8c0.3-0.5,0.9-0.6,1.4-0.4l12.6,7.3l12.6-7.3c0.5-0.3,1.1-0.1,1.4,0.4c0.3,0.5,0.1,1.1-0.4,1.4L15,16.9C14.8,17,14.7,17.1,14.5,17.1z"/>
    <path d="M14.5,32.2c-0.6,0-1-0.4-1-1V16c0-0.6,0.4-1,1-1c0.6,0,1,0.4,1,1v15.1C15.5,31.7,15.1,32.2,14.5,32.2z"/>
  </symbol>
  <symbol id="icon03" width="32.4" height="32.4" viewBox="0 0 32.4 32.4">
    <path d="M14.5,18.9c-0.3,0-0.5-0.1-0.7-0.3c-0.4-0.4-0.4-1,0-1.4L30.3,0.7c0.4-0.4,1-0.4,1.4,0s0.4,1,0,1.4L15.2,18.6C15,18.8,14.8,18.9,14.5,18.9z"/>
    <path d="M20.5,32.4c-0.4,0-0.8-0.2-0.9-0.6l-5.8-13.1L0.6,12.8c-0.4-0.2-0.6-0.5-0.6-1c0-0.4,0.3-0.8,0.7-0.9l30-10.5c0.4-0.1,0.8,0,1,0.2c0.3,0.3,0.4,0.7,0.2,1l-10.5,30C21.3,32.1,21,32.4,20.5,32.4C20.5,32.4,20.5,32.4,20.5,32.4z M3.7,12l11.2,5c0.2,0.1,0.4,0.3,0.5,0.5l5,11.2l9-25.7L3.7,12z"/>
  </symbol>
  <symbol id="icon04" width="33.4" height="29.3" viewBox="0 0 33.4 29.3">
    <path d="M16.7,29.3c-0.3,0-0.5-0.1-0.7-0.3L2.7,15.8C0.9,14,0,11.7,0,9.2s1-4.8,2.7-6.5C4.5,0.9,6.8-0.1,9.3,0c2.5,0,4.8,1,6.5,2.7l0.9,0.9l0.9-0.9c3.6-3.6,9.5-3.6,13.1,0l0,0c1.7,1.7,2.7,4.1,2.7,6.5c0,2.5-1,4.8-2.7,6.5L17.4,29.1C17.2,29.2,16.9,29.3,16.7,29.3z M9.2,2C7.3,2,5.5,2.7,4.1,4.1C2.7,5.4,2,7.3,2,9.2s0.7,3.8,2.1,5.1l12.6,12.6l12.6-12.6c1.4-1.4,2.1-3.2,2.1-5.1c0-1.9-0.8-3.8-2.1-5.1l0,0C27.9,2.8,26,2,24.1,2c0,0,0,0,0,0c-1.9,0-3.8,0.8-5.1,2.1l-1.6,1.6c-0.4,0.4-1,0.4-1.4,0l-1.6-1.6C13,2.7,11.2,2,9.2,2C9.2,2,9.2,2,9.2,2z"/>
  </symbol>
  <symbol id="icon05" width="27" height="27" viewBox="0 0 27 27">
    <path d="M27,27H0v-4.1c0-5.2,9.5-7.2,13.5-7.2S27,17.7,27,22.9V27z M2,25h23v-2.1c0-3.2-7.6-5.2-11.5-5.2c-3.9,0-11.5,2-11.5,5.2V25z M13.5,14.5L13.5,14.5c-4,0-7.2-3.3-7.2-7.2c0-4,3.3-7.3,7.2-7.3c4,0,7.2,3.3,7.2,7.2S17.5,14.5,13.5,14.5z M13.5,2c-2.9,0-5.2,2.4-5.2,5.2c0,2.9,2.4,5.2,5.3,5.2c2.9,0,5.2-2.4,5.2-5.2C18.8,4.4,16.4,2,13.5,2z"/>
  </symbol>
  <symbol id="icon06" width="32.8" height="26" viewBox="0 0 32.8 26">
    <path d="M28.4,26h-24c-2.2,0-4-1.8-4-4V4c0-2.2,1.8-4,4-4c0,0,0,0,0,0h24c2.2,0,4,1.8,4,4v18C32.4,24.2,30.6,26,28.4,26z M4.4,2c-1.1,0-2,0.9-2,2v18c0,1.1,0.9,2,2,2h24c1.1,0,2-0.9,2-2V4c0-1.1-0.9-2-2-2H4.4z"/>
    <path d="M16.4,15.5c-0.2,0-0.4-0.1-0.6-0.2L0.8,4.8C0.4,4.5,0.3,3.9,0.6,3.4C0.9,3,1.5,2.9,2,3.2l14.4,10.1L30.8,3.2c0.5-0.3,1.1-0.2,1.4,0.2c0.3,0.5,0.2,1.1-0.2,1.4L17,15.3C16.8,15.4,16.6,15.5,16.4,15.5z"/>
  </symbol>
  <symbol id="icon07" width="29" height="32" viewBox="0 0 29 32">
    <path d="M25,32H4c-2.2,0-4-1.8-4-4V17.5c0-2.2,1.8-4,4-4h21c2.2,0,4,1.8,4,4V28C29,30.2,27.2,32,25,32z M4,15.5c-1.1,0-2,0.9-2,2V28c0,1.1,0.9,2,2,2h21c1.1,0,2-0.9,2-2V17.5c0-1.1-0.9-2-2-2H4z"/>
    <path d="M22,15.5c-0.6,0-1-0.4-1-1v-6C21,4.9,18.1,2,14.5,2S8,4.9,8,8.5v6c0,0.6-0.4,1-1,1s-1-0.4-1-1v-6C6,3.8,9.8,0,14.5,0C19.2,0,23,3.8,23,8.5v6C23,15.1,22.6,15.5,22,15.5z"/>
  </symbol>
  <symbol id="icon08" width="32" height="23.8" viewBox="0 0 32 23.8">
    <path d="M28.3,23.8H3.7c-2.1,0-3.7-1.7-3.7-3.7V3.7C0,1.7,1.7,0,3.7,0h24.5C30.3,0,32,1.7,32,3.7v16.4C32,22.1,30.3,23.8,28.3,23.8z M3.7,2C2.8,2,2,2.8,2,3.7v16.4c0,1,0.8,1.7,1.7,1.7h24.5c1,0,1.7-0.8,1.7-1.7V3.7c0-1-0.8-1.7-1.7-1.7H3.7z"/>
    <path d="M31,10.2H1c-0.6,0-1-0.4-1-1s0.4-1,1-1h30c0.6,0,1,0.4,1,1S31.6,10.2,31,10.2z"/>
  </symbol>
  <symbol id="icon09" width="33.4" height="30.8" viewBox="0 0 33.4 30.8">
    <path d="M3.7,14.5c-0.1,0-0.1,0-0.2,0c-0.3,0-0.5-0.2-0.6-0.4l-2.3-3.4c-0.3-0.5-0.2-1.1,0.3-1.4C1.3,8.9,1.9,9,2.2,9.5L4,12.1l2.4-1.6c0.5-0.3,1.1-0.2,1.4,0.3c0.3,0.5,0.2,1.1-0.3,1.4l-3.2,2.2C4.1,14.4,3.9,14.5,3.7,14.5z"/>
    <path d="M18,30.8c-0.7,0-1.4,0-2.1-0.1c-4.4-0.6-8.3-3-10.7-6.7c-0.3-0.5-0.2-1.1,0.3-1.4c0.5-0.3,1.1-0.2,1.4,0.3c2.1,3.2,5.5,5.3,9.3,5.8c7.3,1,14.1-4.2,15.1-11.5c1-7.3-4.2-14.1-11.5-15.1c-3.5-0.5-7.1,0.5-9.9,2.6C7,6.9,5.2,10.1,4.7,13.6c-0.1,0.5-0.6,0.9-1.1,0.9c-0.5-0.1-0.9-0.6-0.9-1.1C3.3,9.3,5.4,5.7,8.7,3.2c3.3-2.5,7.3-3.6,11.4-3C28.5,1.3,34.4,9,33.3,17.4C32.2,25.2,25.6,30.8,18,30.8z"/>
    <path d="M23.3,21.9c-0.3,0-0.5-0.1-0.7-0.3l-5.2-5.5c-0.2-0.2-0.3-0.4-0.3-0.7V6.1c0-0.6,0.4-1,1-1c0.6,0,1,0.4,1,1V15l4.9,5.2c0.4,0.4,0.4,1,0,1.4C23.8,21.8,23.5,21.9,23.3,21.9z"/>
  </symbol>
  <symbol id="icon10" width="25.3" height="35" viewBox="0 0 25.3 35">
    <path d="M22.3,35H3c-1.7,0-3-1.3-3-3V3c0-1.7,1.3-3,3-3h19.3c1.7,0,3,1.3,3,3v29C25.3,33.7,24,35,22.3,35z M3,2C2.4,2,2,2.4,2,3v29c0,0.6,0.4,1,1,1h19.3c0.6,0,1-0.4,1-1V3c0-0.6-0.4-1-1-1H3z"/>
    <path d="M1.8,34.9l-1.1-1.6L10.9,26V6.9l-10.1-5l0.9-1.8l10.7,5.3C12.7,5.6,13,5.9,13,6.3v20.3c0,0.3-0.2,0.6-0.4,0.8L1.8,34.9z"/>
    <rect x="7" y="16" width="2" height="2"/>
  </symbol>
</svg>
