<svg version="1.1" xmlns="http://www.w3.org/2000/svg" viewBox="0 0 17 20">
  <symbol id="new-arrival">
    <path d="M6.437,16.588c0.025,1.129,0.91,3.143,2.017,3.161h0.044c1.111,0,2.035-2.028,2.062-3.162v-0.059H6.436L6.437,16.588L6.437,16.588z M16.204,13.614c-0.217-0.177-0.412-0.379-0.581-0.601c-0.144-0.19-0.271-0.393-0.378-0.606c-0.199-0.408-0.355-0.836-0.464-1.277c-0.081-0.305-0.157-0.657-0.241-1.106c-0.036-0.196-0.072-0.393-0.108-0.595c-0.07-0.393-0.141-0.801-0.229-1.21c-0.125-0.64-0.316-1.265-0.569-1.866c-0.223-0.519-0.502-1.013-0.83-1.473c-0.241-0.336-0.516-0.647-0.82-0.927c-0.458-0.425-0.991-0.761-1.571-0.991c-0.135-0.054-0.279-0.098-0.429-0.145c0.222-0.449,0.24-0.972,0.049-1.435C9.91,1.079,9.701,0.819,9.431,0.632C8.966,0.31,8.368,0.25,7.849,0.475c-0.3,0.129-0.555,0.343-0.735,0.616C6.8,1.571,6.742,2.176,6.961,2.707c0.015,0.037,0.032,0.072,0.051,0.107C6.934,2.84,6.856,2.861,6.781,2.887C6.385,3.023,6.008,3.21,5.66,3.442C5.144,3.788,4.689,4.218,4.315,4.714C3.932,5.22,3.612,5.771,3.363,6.355c-0.151,0.351-0.277,0.712-0.378,1.08c-0.18,0.648-0.295,1.3-0.393,1.874l-0.028,0.11c-0.075,0.422-0.146,0.822-0.231,1.207c-0.075,0.344-0.151,0.638-0.234,0.902c-0.12,0.406-0.29,0.795-0.504,1.16c-0.212,0.351-0.482,0.662-0.799,0.921c-0.35,0.289-0.484,0.764-0.337,1.193c0.143,0.427,0.542,0.715,0.992,0.718H15.55c0.45-0.003,0.848-0.291,0.991-0.718c0.147-0.429,0.013-0.904-0.337-1.193V13.614z M4.632,9.797c0.07-0.393,0.136-0.766,0.212-1.121C4.94,8.179,5.086,7.694,5.278,7.228c0.162-0.381,0.364-0.743,0.603-1.08c0.156-0.22,0.334-0.422,0.532-0.605c0.268-0.253,0.581-0.452,0.922-0.59C7.706,4.811,8.1,4.74,8.497,4.745C8.856,4.744,9.211,4.803,9.55,4.921C9.779,5,9.996,5.107,10.198,5.24c0.321,0.219,0.604,0.488,0.838,0.798c0.277,0.367,0.508,0.766,0.687,1.189C11.834,7.486,11.927,7.751,12,8.022c0.14,0.503,0.246,1.08,0.352,1.669l0.024,0.132c0.074,0.412,0.149,0.839,0.244,1.277c0.087,0.405,0.181,0.761,0.286,1.094c0.126,0.408,0.285,0.805,0.476,1.186h-9.76c0.267-0.542,0.477-1.11,0.625-1.696c0.12-0.459,0.21-0.912,0.275-1.259C4.558,10.213,4.596,10.003,4.632,9.797z M8.971,1.72c0.064,0.095,0.098,0.208,0.098,0.323c0,0.078-0.015,0.155-0.044,0.228C8.981,2.374,8.909,2.463,8.817,2.527c-0.06,0.041-0.126,0.07-0.196,0.085H8.497H8.399H8.375C8.342,2.604,8.309,2.593,8.277,2.58C8.175,2.534,8.088,2.461,8.026,2.368C7.961,2.272,7.927,2.159,7.928,2.043c0-0.078,0.015-0.154,0.045-0.226c0.043-0.103,0.116-0.192,0.208-0.254C8.339,1.452,8.543,1.431,8.72,1.509C8.823,1.553,8.91,1.627,8.971,1.72z"/>
  </symbol>
</svg>