<svg version="1.1" xmlns="http://www.w3.org/2000/svg" viewBox="0 0 37 35">
  <symbol id="newmember">
    <path d="M15.793,16.249c4.32,0.035,7.851-3.439,7.886-7.76c0.035-4.32-3.439-7.851-7.76-7.886s-7.851,3.439-7.886,7.76c0,0.021,0,0.042,0,0.063C8.021,12.727,11.492,16.227,15.793,16.249z M15.793,2.438c3.307-0.027,6.011,2.632,6.038,5.94s-2.632,6.011-5.94,6.038c-3.307,0.027-6.011-2.632-6.038-5.94c0-0.017,0-0.034,0-0.051C9.841,5.132,12.5,2.451,15.793,2.438z M19.843,17.247c1.208,0.401,2.351,0.979,3.39,1.715c0.565-0.378,1.173-0.689,1.81-0.926c-1.009-0.812-2.118-1.489-3.3-2.017C21.162,16.503,20.524,16.916,19.843,17.247L19.843,17.247z M2.763,29.566c0.064-5.6,3.668-10.545,8.98-12.319c-0.685-0.329-1.326-0.741-1.91-1.228c-5.356,2.391-8.828,7.682-8.89,13.547l0,0v1.829h19.92c-0.391-0.571-0.716-1.185-0.97-1.829C19.893,29.566,2.763,29.566,2.763,29.566z M28.063,18.293c-4.446-0.039-8.081,3.534-8.12,7.98s3.534,8.081,7.98,8.12c4.446,0.039,8.081-3.534,8.12-7.98c0-0.024,0-0.047,0-0.071C36.057,21.918,32.487,18.318,28.063,18.293z M28.063,32.393c-3.343,0.03-6.078-2.656-6.108-6c-0.03-3.343,2.656-6.078,6-6.108	s6.078,2.656,6.108,6c0,0.018,0,0.036,0,0.054c0.013,3.328-2.672,6.038-6,6.057V32.393z M29.053,25.341v-3.408h-1.98v3.408h-3.38v2h3.38v3.409h1.98v-3.409h3.38v-2C32.433,25.341,29.053,25.341,29.053,25.341z"/>
  </symbol>
</svg>