<svg xmlns="http://www.w3.org/2000/svg" width="15.539" height="17.602" viewBox="0 0 15.539 17.602">
  <g transform="matrix(1, -0.017, 0.017, 1, -30.995, 0.807)" id="privacy">
    <path d="M154.4,70.732a3.408,3.408,0,0,0,3.4-3.4v-3.4h-.973V62.432a2.432,2.432,0,0,0-4.863,0v1.491H151v3.4A3.408,3.408,0,0,0,154.4,70.732Zm-1.459-8.3a1.459,1.459,0,1,1,2.918,0v1.491h-2.918Zm-.973,2.464h4.863v2.432a2.432,2.432,0,0,1-4.863,0Z" transform="translate(-115.785 -58.055)"/>
    <path d="M38.48,17.3l.14.04.14-.04a10.33,10.33,0,0,0,7.48-9.93V1.016H43.91L42.894,0H34.345L33.329,1.016H31V7.369A10.329,10.329,0,0,0,38.48,17.3ZM32.016,2.032H33.75l1.016-1.016h7.707l1.016,1.016h1.734V7.369a9.348,9.348,0,0,1-6.6,8.912,9.348,9.348,0,0,1-6.6-8.912Z" transform="translate(0 0)"/>
    <path d="M241,241h.973v2.918H241Z" transform="translate(-202.867 -232.765)"/>
  </g>
</svg>
