<svg version="1.1" xmlns="http://www.w3.org/2000/svg" viewBox="0 0 37.6 25.2">
  <symbol id="qa">
    <path d="M12.3,7.1c0-0.1-0.1-0.3-0.1-0.4C12.1,6.6,12,6.5,12,6.5c-0.1-0.1-0.3-0.2-0.4-0.3c-0.4-0.2-0.8-0.2-1.2,0C10.2,6.2,10,6.3,9.9,6.5C9.8,6.5,9.7,6.6,9.7,6.7C9.6,6.8,9.6,7,9.6,7.1c0,0.2-0.1,0.4-0.1,0.6c0,0.2,0,0.6,0,0.9c0,0.4,0,0.7,0,0.9c0,0.2,0,0.4,0.1,0.6c0,0.1,0.1,0.3,0.1,0.4c0,0.1,0.1,0.2,0.2,0.3c0.1,0.1,0.3,0.2,0.4,0.3c0.2,0.1,0.4,0.1,0.6,0.1c0.2,0,0.3,0,0.4-0.1c0,0,0.1,0,0.1,0l0,0h0l-0.7-0.7l0,0l0.9-0.8l0.4,0.4l0.2,0.2l0,0l0,0c0.1-0.2,0.1-0.4,0.1-0.6c0-0.2,0-0.6,0-1c0-0.4,0-0.7,0-0.9C12.3,7.5,12.3,7.3,12.3,7.1z M21.5,11.3c1-3.7-1-7.4-4.1-9.4c-1.9-1.2-4.1-1.8-6.3-1.7c-1.4,0-2.7,0.2-4,0.7L7,0.9C6.8,1,6.6,1,6.4,1.1c0,0,0,0-0.1,0C6.2,1.2,6,1.3,5.8,1.4c0,0,0,0,0,0C4.3,2.1,2.9,3.1,1.9,4.5c-2,2.6-2.2,6.3-0.4,9.1c1.1,1.7,2.7,3,4.6,3.8c0.2,1.5,0.4,2.9,0.6,4.4c1.4-1.1,2.9-2.2,4.3-3.4C15.5,18.4,20.2,15.8,21.5,11.3L21.5,11.3z M13.3,12.9l-0.7-0.7c-0.2,0.1-0.5,0.2-0.7,0.3c-0.3,0.1-0.6,0.1-0.9,0.1c-0.4,0-0.9-0.1-1.2-0.2c-0.4-0.1-0.7-0.4-1-0.6C8.3,11.5,8.1,11,8,10.5C7.9,10.2,7.9,10,7.9,9.7c0-0.3,0-0.6,0-1c0-0.4,0-0.7,0-1c0-0.3,0-0.6,0.1-0.8c0-0.2,0.1-0.5,0.2-0.7c0.1-0.2,0.3-0.4,0.5-0.6C9,5.2,9.3,5,9.7,4.9c0.4-0.2,0.8-0.2,1.2-0.2c0.4,0,0.9,0.1,1.3,0.2c0.4,0.1,0.7,0.4,0.9,0.6c0.2,0.2,0.4,0.4,0.5,0.6c0.1,0.2,0.2,0.5,0.2,0.7c0,0.1,0,0.2,0,0.3c0,0.1,0,0.2,0,0.3c0,0.1,0,0.2,0,0.3c0,0.3,0,0.6,0,1c0,0.3,0,0.6,0,0.9c0,0.3,0,0.5-0.1,0.7c0,0.2-0.1,0.4-0.2,0.6c-0.1,0.2-0.2,0.4-0.3,0.5l0.7,0.6l0,0L13.3,12.9z M27,14.2h1.9l-1-2.5L27,14.2z M37.3,12.7c-0.3-3-2.1-5.7-4.8-7c-3-1.6-6.6-1.8-9.8-0.5c-0.1,0-0.1,0-0.2,0.1c0,0,0,0,0,0c1,2,1.2,4.4,0.6,6.6c-0.6,2.2-2,4.2-3.9,5.6c-0.2,0.2-0.5,0.4-0.8,0.5l0,0c0.6,0.8,1.4,1.5,2.2,2c1.2,0.8,2.5,1.3,3.8,1.6c0.7,0.1,1.4,0.2,2.1,0.2c0.2,0,0.4,0.1,0.5,0.2c1.3,1,2.6,2,3.9,3c0.2-1.4,0.4-2.8,0.6-4.2c0.8-0.4,1.6-0.8,2.3-1.4c0.1-0.1,0.1-0.1,0.2-0.2c0.1-0.1,0.2-0.2,0.3-0.3c0.1-0.1,0.2-0.2,0.3-0.2c0.1-0.1,0.1-0.1,0.2-0.2c0.1-0.1,0.2-0.2,0.2-0.3l0.2-0.2l0.2-0.2c0.1-0.1,0.2-0.2,0.2-0.3c0-0.1,0.1-0.1,0.1-0.2c0.1-0.1,0.2-0.3,0.3-0.4c0,0,0,0,0-0.1C37,15.6,37.4,14.2,37.3,12.7L37.3,12.7z M29.9,17l-0.6-1.6h-2.8L25.9,17h-1.6l3-7.4h1.2l3,7.4H29.9L29.9,17z"/>
  </symbol>
</svg>