<svg version="1.1" xmlns="http://www.w3.org/2000/svg"  viewBox="0 0 26 18.469">
  <symbol id="quick">
<path d="M16.706,1.037c4.527-0.042,8.231,3.594,8.273,8.122c0.042,4.527-3.594,8.231-8.122,8.273c-4.527,0.042-8.231-3.594-8.273-8.122c0-0.025,0-0.05,0-0.074C8.563,4.729,12.199,1.059,16.706,1.037 M16.706,3.088c-3.396-0.026-6.169,2.706-6.195,6.101c-0.026,3.395,2.706,6.169,6.101,6.195c3.396,0.026,6.169-2.706,6.195-6.101c0-0.016,0-0.032,0-0.048c0.015-3.38-2.712-6.132-6.091-6.147C16.712,3.088,16.709,3.088,16.706,3.088 M15.691,5.138h1.533V9.01l2.359,2.389l-1.075,1.088l-2.817-2.841V5.138M2.005,15.38c-0.566,0-1.025-0.459-1.025-1.025c0-0.566,0.459-1.025,1.025-1.025h5.385c0.321,0.726,0.722,1.413,1.194,2.05H2.005 M3.03,10.254c-0.565,0-1.024-0.458-1.024-1.023c0-0.565,0.458-1.023,1.023-1.024c0,0,0.001,0,0.001,0h3.573l-0.06,1.024l0.06,1.022H3.03 M4.045,5.134c-0.566,0-1.025-0.459-1.025-1.025c0-0.566,0.459-1.025,1.025-1.025l0,0h4.539C8.11,3.72,7.71,4.408,7.389,5.134H4.045z"/>
  </symbol>
</svg>
