<svg xmlns="http://www.w3.org/2000/svg" viewBox="0 0 19 18.1">
  <symbol id="sakura">
      <path d="M8.5,0.1L8.5,0.1z M18.9,7.7c0-0.1-0.1-0.1-0.2-0.2l0,0l-0.2-0.1L18,7l-0.2-0.2l0-0.1L18,6.1l0.1-0.3l0-0.1l0,0v0l0,0l0,0l0,0l0,0l0,0c0.1-0.2,0-0.5-0.2-0.6l0,0c0,0-0.1,0-0.1-0.1c-0.1,0-0.2-0.1-0.3-0.1c-0.6-0.2-1.1-0.4-1.7-0.5c-0.8-0.2-1.6-0.3-2.4-0.3c-0.4-0.9-0.8-1.8-1.3-2.6c-0.2-0.4-0.4-0.7-0.6-0.9c-0.1-0.1-0.2-0.2-0.2-0.3c0,0-0.1-0.1-0.1-0.1c0,0-0.1-0.1-0.1-0.1l0,0C11,0,10.7,0,10.5,0.1l0,0l-0.1,0L9.8,0.6L9.5,0.9l0,0l0,0L8.9,0.4L8.6,0.2L8.5,0.1l0,0l0,0l0,0C8.4,0,8.3,0,8.2,0C8.1,0,8,0,7.9,0.1l0,0l0,0c0,0-0.1,0.1-0.1,0.1C7.7,0.3,7.7,0.3,7.6,0.4c-0.4,0.5-0.7,1-1,1.5C6.1,2.6,5.8,3.3,5.5,4c-1,0.1-1.9,0.2-2.8,0.5c-0.4,0.1-0.8,0.2-1,0.3c-0.1,0-0.2,0.1-0.3,0.1c0,0-0.1,0-0.1,0.1c0,0-0.1,0-0.1,0.1C1,5.1,0.9,5.2,0.9,5.3c-0.1,0.1-0.1,0.3,0,0.4l0,0l0,0l0,0c0,0.1,0.1,0.4,0.2,0.7l0.1,0.4l0,0l0,0L0.6,7.3L0.3,7.5L0.3,7.6l0,0h0l0,0c-0.1,0-0.1,0.1-0.2,0.2C0,7.8,0,7.9,0,8c0,0.1,0,0.1,0,0.2c0,0,0,0.1,0.1,0.1c0,0.1,0.1,0.1,0.1,0.2C0.5,9,0.9,9.5,1.3,10c0.5,0.6,1.1,1.2,1.7,1.7c-0.3,1.1-0.4,2.3-0.5,3.5c0,0.2,0,0.5,0,0.6c0,0.1,0,0.2,0,0.2c0,0.1,0,0.1,0,0.2l0,0c0,0.1,0.1,0.3,0.3,0.3c0.1,0,0.1,0,0.2,0h0.1l0.8,0l0.4,0h0l0,0.1c0.1,0.2,0.1,0.5,0.2,0.7l0.1,0.3l0,0.1l0,0v0l0,0C4.8,18,5,18.1,5.3,18.1h0c0,0,0.1,0,0.1,0c0.1,0,0.2,0,0.3-0.1c0.6-0.1,1.1-0.3,1.7-0.6c0.7-0.3,1.5-0.7,2.1-1.1c0.8,0.5,1.7,0.9,2.6,1.3c0.4,0.2,0.7,0.3,1,0.3c0.1,0,0.3,0.1,0.4,0.1c0,0,0.1,0,0.1,0s0.1,0,0.1,0h0c0.1,0,0.3-0.1,0.4-0.2c0.1-0.1,0.1-0.1,0.1-0.2l0,0l0,0l0.1-0.2l0.2-0.7l0.1-0.3h0.1l0.7,0h0.3h0.1c0.1,0,0.2,0,0.3-0.1c0,0,0.1-0.1,0.1-0.1c0-0.1,0.1-0.1,0.1-0.2c0-0.1,0-0.1,0-0.2c0-0.1,0-0.2,0-0.4s0-0.3,0-0.5c0-1.2-0.2-2.4-0.5-3.5c0.7-0.6,1.4-1.3,2-2.1c0.3-0.3,0.5-0.6,0.6-0.9c0.1-0.1,0.1-0.2,0.2-0.3c0,0,0-0.1,0.1-0.1s0-0.1,0.1-0.1c0-0.1,0-0.1,0-0.2C19,7.9,19,7.8,18.9,7.7z M17,9.4c-0.5,0.6-1.2,1.2-1.8,1.7c-0.1,0.1-0.2,0.3-0.2,0.5c0.3,1.2,0.5,2.3,0.5,3.5c0,0.2,0,0.4,0,0.5l-0.4,0l-0.7,0h0c-0.3,0-0.6,0.2-0.6,0.5l0,0l-0.2,0.7l-0.1,0.4c-0.1,0-0.2-0.1-0.3-0.1c-1.2-0.4-2.4-0.9-3.4-1.6c-0.1-0.1-0.3-0.1-0.5,0c-0.8,0.6-1.7,1-2.6,1.4c-0.4,0.1-0.7,0.2-0.9,0.3l-0.1,0c-0.1-0.4-0.3-1-0.3-1c-0.1-0.3-0.3-0.5-0.6-0.5h0l-0.7,0l-0.4,0c0-0.1,0-0.3,0-0.5c0-1.2,0.2-2.4,0.5-3.5c0.1-0.2,0-0.4-0.2-0.5C3,10.5,2.3,9.8,1.7,9C1.4,8.7,1.2,8.4,1.1,8.2c0,0-0.1-0.1-0.1-0.1l0.3-0.2l0.5-0.4l0,0C2.1,7.3,2.2,7,2.1,6.7L1.9,6.1L1.8,5.7c0.5-0.2,1-0.3,1.5-0.5C4.2,5,5,4.9,5.8,4.9c0.2,0,0.3-0.1,0.4-0.3C6.6,3.7,7,2.8,7.6,1.9C7.8,1.6,8,1.3,8.1,1.1c0,0,0.1-0.1,0.1-0.1l0.3,0.3l0.5,0.4c0.2,0.2,0.6,0.2,0.8,0l0.6-0.4L10.8,1c0.3,0.4,0.6,0.9,0.9,1.3c0.4,0.7,0.8,1.5,1.1,2.3c0.1,0.2,0.2,0.3,0.4,0.3c1,0,2,0.2,2.9,0.4c0.4,0.1,0.7,0.2,0.9,0.3l0.1,0.1c0,0.1-0.1,0.3-0.1,0.4l-0.2,0.6c-0.1,0.3,0,0.6,0.2,0.8l0,0l0.6,0.4L18,8.1C17.7,8.6,17.4,9,17,9.4z M12.5,8.9c-0.2,0-0.5,0.1-0.6,0.4h-1.8L11.4,8c0.3,0.1,0.7,0,0.8-0.4c0.1-0.3,0-0.7-0.4-0.8c-0.3-0.1-0.7,0-0.8,0.4C11,7.3,11,7.5,11,7.6L9.8,8.9V7.1c0.3-0.1,0.4-0.5,0.3-0.8C9.9,6,9.6,5.8,9.2,6C8.9,6.1,8.8,6.5,8.9,6.8C9,6.9,9.1,7,9.2,7.1v1.8L8,7.6c0.1-0.3,0-0.7-0.4-0.8c-0.3-0.1-0.7,0-0.8,0.4C6.7,7.5,6.9,7.9,7.2,8C7.3,8,7.5,8,7.6,8l1.3,1.3H7.1C7,8.9,6.6,8.8,6.3,8.9C6,9.1,5.8,9.4,6,9.8c0.1,0.3,0.5,0.4,0.8,0.3C6.9,10,7,9.9,7.1,9.8h1.8L7.6,11c-0.3-0.1-0.7,0-0.8,0.4c-0.1,0.3,0,0.7,0.4,0.8c0.3,0.1,0.7,0,0.8-0.4C8,11.7,8,11.5,8,11.4l1.3-1.3v1.8c-0.3,0.1-0.4,0.5-0.3,0.8C9.1,13,9.4,13.2,9.8,13c0.3-0.1,0.4-0.5,0.3-0.8c-0.1-0.1-0.2-0.2-0.3-0.3v-1.8l1.3,1.3c-0.1,0.3,0,0.7,0.4,0.8c0.3,0.1,0.7,0,0.8-0.4c0.1-0.3,0-0.7-0.4-0.8c-0.1-0.1-0.3-0.1-0.4,0l-1.3-1.3h1.8c0.1,0.3,0.5,0.4,0.8,0.3C13,9.9,13.2,9.5,13,9.2C12.9,9,12.7,8.9,12.5,8.9L12.5,8.9z"></path>
  </symbol>
</svg>
