<?xml version="1.0" encoding="utf-8"?>
<!-- Generator: Adobe Illustrator 27.9.0, SVG Export Plug-In . SVG Version: 6.00 Build 0)  -->
<svg version="1.1" id="sale-reserve" xmlns="http://www.w3.org/2000/svg" xmlns:xlink="http://www.w3.org/1999/xlink" x="0px"
	 y="0px" width="92px" height="82px" viewBox="0 0 92 82" enable-background="new 0 0 92 82" xml:space="preserve">
<g>
	<circle id="楕円形_2_00000135674626123187756880000006042647789212571326_" fill="#FFFFFF" cx="40.979" cy="41" r="39.479"/>
	<path fill="#F36B30" d="M40.979,81.479C18.659,81.479,0.5,63.32,0.5,41S18.659,0.521,40.979,0.521S81.458,18.679,81.458,41
		S63.299,81.479,40.979,81.479z M40.979,2.521C19.762,2.521,2.5,19.783,2.5,41s17.262,38.479,38.479,38.479S79.458,62.217,79.458,41
		S62.196,2.521,40.979,2.521z"/>
</g>
<circle id="楕円形_4" fill="#F36B30" cx="78.87" cy="42.588" r="12.63"/>
<path id="de" fill-rule="evenodd" clip-rule="evenodd" fill="#FFFFFF" stroke="#FFFFFF" stroke-width="0.25" stroke-miterlimit="10" d="
	M78.774,48.066v-13.38h-1.988v4.562c-0.177-0.232-0.38-0.444-0.605-0.63c-0.164-0.101-0.333-0.193-0.505-0.277
	c-0.292-0.152-0.615-0.234-0.944-0.241c-1.355,0-2.032,0.811-2.032,2.434v5.552c-0.039,0.569,0.137,1.133,0.493,1.579
	c0.359,0.373,0.865,0.569,1.382,0.537c0.38,0.006,0.756-0.07,1.104-0.222c0.424-0.22,0.802-0.519,1.116-0.879v0.962h1.978v0.003
	H78.774z M76.786,46.289c-0.175,0.166-0.374,0.301-0.592,0.403c-0.181,0.068-0.373,0.102-0.567,0.099
	c-0.454,0.038-0.852-0.299-0.89-0.752c-0.006-0.076-0.002-0.153,0.013-0.228v-5.164c-0.014-0.294,0.072-0.584,0.245-0.823
	c0.194-0.217,0.475-0.339,0.766-0.334c0.179,0.02,0.354,0.064,0.522,0.13c0.179,0.099,0.346,0.216,0.499,0.351v6.317L76.786,46.289z
	 M87.459,45.318v-0.657h-2.065v0.601c0.048,0.417-0.038,0.838-0.245,1.203c-0.218,0.22-0.523,0.332-0.832,0.306
	c-0.328,0.019-0.645-0.118-0.856-0.37c-0.165-0.355-0.238-0.748-0.21-1.139v-1.989h4.207v-2.48c0.04-0.75-0.219-1.486-0.721-2.045
	c-0.627-0.573-1.462-0.865-2.31-0.804c-0.858-0.042-1.699,0.248-2.348,0.809c-0.579,0.517-0.902,1.263-0.883,2.04v4.525
	c-0.11,1.558,1.064,2.911,2.622,3.021c0.151,0.011,0.303,0.009,0.454-0.005c0.859,0.058,1.706-0.214,2.369-0.763
	c0.583-0.599,0.881-1.419,0.821-2.253l0,0H87.459z M85.395,41.903h-2.143v-1.128c-0.016-0.335,0.069-0.667,0.244-0.953
	c0.222-0.222,0.53-0.337,0.844-0.315c0.306-0.034,0.61,0.078,0.822,0.301c0.179,0.289,0.261,0.629,0.233,0.967L85.395,41.903
	L85.395,41.903z"/>
<path id="セール" fill-rule="evenodd" clip-rule="evenodd" fill="#F36B30" stroke="#F36B30" stroke-width="0.25" stroke-miterlimit="10" d="
	M19.852,33.245c0,2.719,0.761,3.987,6.021,3.987c2.39-0.012,4.777-0.181,7.145-0.507l0.093-3.135
	c-2.388,0.495-4.82,0.758-7.26,0.784c-2.536,0-2.95-0.507-2.95-1.936v-6.107c3.273-0.668,6.384-1.267,7.098-1.429
	c-0.984,1.738-2.228,3.316-3.687,4.679l2.536,1.498c1.863-2.029,3.466-4.284,4.771-6.711c0.207-0.415,0.553-0.945,0.76-1.267
	l-2.213-1.705c-0.519,0.249-1.07,0.426-1.636,0.53c-1.037,0.254-4.264,0.898-7.628,1.544v-2.719c0.021-0.887,0.09-1.772,0.207-2.651
	h-3.435c0.12,0.878,0.183,1.765,0.185,2.651v3.296c-2.282,0.415-4.31,0.761-5.393,0.899l0.553,3.019
	c0.968-0.23,2.789-0.599,4.836-1.014v6.292L19.852,33.245z M35.726,25.639v3.619c0.739-0.08,1.482-0.119,2.227-0.115h7.429
	c0.581,0,1.283,0.092,1.619,0.115v-3.619c-0.536,0.083-1.077,0.129-1.619,0.139h-7.429c-0.743-0.005-1.485-0.051-2.224-0.139H35.726
	z M56.966,35.805l1.935,1.59c0.3-0.269,0.631-0.501,0.987-0.691c2.997-1.556,5.653-3.696,7.813-6.293l-1.777-2.535
	c-1.443,2.088-3.405,3.764-5.693,4.863V20.684c-0.004-0.672,0.05-1.343,0.161-2.006h-3.434c0.125,0.653,0.188,1.317,0.185,1.982
	v13.438c-0.003,0.571-0.061,1.141-0.175,1.702L56.966,35.805z M46.294,35.459l2.812,1.866c1.987-1.754,3.413-4.053,4.103-6.613
	c0.623-2.328,0.691-7.191,0.691-9.911c0.005-0.702,0.059-1.402,0.161-2.097h-3.388c0.156,0.696,0.226,1.408,0.208,2.121
	c0,2.788-0.024,7.145-0.669,9.127c-0.687,2.205-2.058,4.133-3.914,5.506L46.294,35.459z"/>
<path id="予約" fill-rule="evenodd" clip-rule="evenodd" fill="#F36B30" stroke="#F36B30" stroke-width="0.25" stroke-miterlimit="10" d="
	M36.339,52.776l-0.527,0.186h-3.784l0.575-0.904c-0.551-0.255-1.269-0.509-2.06-0.81c1.971-1.299,3.821-2.772,5.527-4.404
	l-2.035-1.553l-0.647,0.163H19.073v2.526h11.566c-0.957,0.801-1.974,1.53-3.041,2.178c-1.341-0.487-2.683-0.927-3.76-1.298
	l-1.412,2.085c1.533,0.557,3.472,1.298,5.245,2.016H16.774v2.618h9.459v7.115c0,0.347-0.144,0.44-0.599,0.463
	c-0.479,0-2.251,0-3.664-0.046c0.478,0.822,0.825,1.713,1.029,2.642c1.585,0.105,3.176-0.037,4.718-0.417
	c1.15-0.395,1.48-1.086,1.48-2.548v-7.205h5.053c-0.567,0.986-1.19,1.937-1.868,2.85l2.443,1.368
	c1.509-1.859,2.795-3.89,3.831-6.049L36.339,52.776z M42.672,57.71c-0.116,1.851-0.546,3.669-1.269,5.376
	c0.753,0.27,1.482,0.604,2.179,0.997c0.772-1.911,1.256-3.925,1.438-5.978L42.672,57.71z M48.011,58.22
	c0.623,1.439,1.097,2.937,1.413,4.473l2.251-0.765c-0.388-1.495-0.909-2.954-1.556-4.356L48.011,58.22z M55.482,48.07
	c0.466-1.077,0.858-2.184,1.174-3.314l-2.921-0.602c-0.676,2.852-2.031,5.499-3.948,7.717l-0.168-0.278l-2.011,0.858
	c0.287,0.487,0.574,1.042,0.838,1.599l-2.418,0.093c1.632-2.012,3.159-4.109,4.574-6.28l-2.419-0.974
	c-0.656,1.311-1.392,2.58-2.203,3.801c-0.24-0.301-0.527-0.648-0.838-0.973c0.862-1.298,1.844-3.082,2.706-4.681l-2.515-0.858
	c-0.484,1.385-1.068,2.733-1.748,4.033l-0.575-0.487l-1.34,1.9c1.059,0.962,2.021,2.026,2.873,3.175
	c-0.359,0.509-0.742,0.996-1.101,1.437l-1.777,0.069l0.239,2.41l3.544-0.232v9.34h2.515v-9.525l1.365-0.093
	c0.133,0.412,0.246,0.829,0.336,1.251l2.155-0.973c-0.429-1.52-1.056-2.977-1.862-4.334c0.787,0.453,1.54,0.964,2.25,1.53
	c0.772-0.93,1.454-1.931,2.036-2.99h6.613c-0.263,7.903-0.622,11.286-1.34,12.005c-0.254,0.283-0.627,0.429-1.006,0.395
	c-0.646,0-2.011,0-3.521-0.139c0.53,0.841,0.858,1.792,0.957,2.781c1.246,0.075,2.495,0.052,3.737-0.07
	c0.922-0.047,1.77-0.517,2.299-1.274c1.006-1.229,1.341-4.89,1.652-15.04c0.024-0.347,0.024-1.274,0.024-1.274L55.482,48.07
	L55.482,48.07z M58.189,58.66c-0.789-1.867-1.837-3.615-3.113-5.19l-2.275,1.112c1.222,1.637,2.205,3.44,2.921,5.353L58.189,58.66z"
	/>
</svg>
