<svg version="1.1" xmlns="http://www.w3.org/2000/svg" viewBox="0 0 23 22">
  <symbol id="search">
    <path d="M22.081,19.428l-5.575-5.489c0.958-1.461,1.467-3.172,1.462-4.919c-0.167-4.662-4.083-8.305-8.744-8.138C4.562,1.049,0.919,4.964,1.087,9.626c0.163,4.544,3.894,8.143,8.441,8.143c1.982-0.001,3.896-0.72,5.388-2.024l5.624,5.54L22.081,19.428z M9.567,15.92c-3.633,0.089-6.651-2.784-6.741-6.417C2.737,5.87,5.61,2.852,9.243,2.763c3.633-0.089,6.651,2.784,6.741,6.417c0.001,0.055,0.002,0.11,0.002,0.165C16.027,12.932,13.155,15.874,9.567,15.92L9.567,15.92z"/>
  </symbol>
</svg>
