<svg xmlns="http://www.w3.org/2000/svg" viewBox="0 0 19.2 15">
  <symbol id="shirt">
      <path d="M18.4,2.2l-5.6-2.1H6.4l-0.1,0l-5.5,2l0,0C0.3,2.3,0,2.9,0.1,3.4l0.6,2.4c0.1,0.5,0.5,0.8,1,0.8h0.1l1.8-0.1v6.9c0,0.8,0.6,1.4,1.4,1.4h9.2c0.8,0,1.4-0.6,1.4-1.4c0,0,0,0,0,0V6.6l1.8,0.1h0.1c0.5,0,0.9-0.3,1-0.8l0.6-2.4c0-0.1,0-0.2,0-0.2C19.1,2.7,18.8,2.3,18.4,2.2z M12.2,0.9c-0.1,0.2-0.2,0.4-0.3,0.6c-0.2,0.3-0.5,0.6-0.8,0.7c-0.5,0.2-1,0.4-1.5,0.3c-0.5,0-1.1-0.1-1.5-0.4C7.6,2,7.2,1.6,7,1.1C7,1,7,0.9,7,0.9H12.2z M18.3,3.2l-0.6,2.4c0,0.1-0.1,0.2-0.3,0.2h0l-2.6-0.2v7.8c0,0.3-0.3,0.6-0.6,0.6H5c-0.3,0-0.6-0.3-0.6-0.6V5.7L1.8,5.9h0h0c-0.1,0-0.3-0.1-0.3-0.2L0.9,3.2l0-0.1C0.9,3,1,2.9,1.1,2.9l0,0l5.4-2c0.1,0.3,0.2,0.6,0.4,0.8c0.2,0.4,0.6,0.7,1,0.9C8.4,3,9,3.1,9.6,3.1c0.6,0,1.2-0.1,1.8-0.4c0.6-0.3,1-0.8,1.2-1.4c0-0.1,0.1-0.2,0.1-0.3l5.4,2C18.3,2.9,18.3,3.1,18.3,3.2L18.3,3.2z M14.2,15C14.2,15,14.2,15,14.2,15H5c-0.8,0-1.5-0.7-1.5-1.5V6.7L1.7,6.8c-0.5,0-1-0.4-1.1-0.9L0,3.4c-0.1-0.6,0.2-1.2,0.7-1.4l0,0l5.6-2l6.4,0l5.6,2.1c0.5,0.2,0.8,0.6,0.8,1.1c0,0.1,0,0.2,0,0.3l-0.6,2.4c-0.1,0.5-0.6,0.9-1.1,0.9h-0.1l-1.7-0.1v6.8c0,0.4-0.2,0.8-0.4,1.1C15,14.8,14.6,15,14.2,15z M3.7,6.5v7c0,0.7,0.6,1.3,1.3,1.3h9.2c0,0,0,0,0,0c0.3,0,0.7-0.1,0.9-0.4c0.2-0.2,0.4-0.6,0.4-0.9V6.4l1.9,0.1l0.1,0c0.5,0,0.8-0.3,0.9-0.7L19,3.4c0-0.1,0-0.1,0-0.2c0-0.4-0.3-0.8-0.6-0.9l-5.6-2H6.4l0,0l-5.5,2C0.4,2.4,0.1,2.9,0.2,3.4l0.6,2.4c0.1,0.4,0.5,0.7,0.9,0.7h0.1L3.7,6.5z M14.2,14.2H5c-0.4,0-0.7-0.3-0.7-0.7V5.8L1.8,6C1.6,6,1.4,5.9,1.4,5.7L0.8,3.2C0.8,3,0.9,2.9,1,2.8l0,0l5.5-2l0,0.1c0.1,0.3,0.2,0.6,0.4,0.8c0.2,0.4,0.6,0.7,1,0.9C8.4,2.9,9,3,9.6,3c0.6,0,1.2-0.1,1.7-0.4c0.5-0.3,1-0.8,1.2-1.4c0-0.1,0.1-0.2,0.1-0.3l0-0.1l5.5,2c0.2,0.1,0.3,0.3,0.2,0.5l0,0l-0.6,2.4c0,0.2-0.2,0.3-0.4,0.3l-2.5-0.1v7.7C14.9,13.9,14.6,14.2,14.2,14.2z M4.5,5.6v7.9C4.5,13.8,4.7,14,5,14h9.2c0.3,0,0.5-0.2,0.5-0.5V5.6l2.7,0.2c0.1,0,0.2-0.1,0.2-0.1l0.6-2.4l0,0c0-0.1,0-0.2-0.1-0.2L12.8,1c0,0.1-0.1,0.2-0.1,0.3c-0.2,0.6-0.7,1.1-1.3,1.5c-0.6,0.3-1.2,0.4-1.8,0.4C9,3.2,8.3,3.1,7.8,2.8c-0.4-0.2-0.8-0.6-1-1C6.6,1.6,6.5,1.3,6.4,1L1.1,3l0,0C1,3,1,3.1,1,3.2l0,0.1l0.6,2.4c0,0.1,0.1,0.1,0.2,0.1h0.1L4.5,5.6z M9.5,2.7C9,2.7,8.5,2.6,8,2.3C7.5,2,7.2,1.6,7,1.1c0-0.1,0-0.1-0.1-0.2l0-0.1h5.5l0,0.1c-0.1,0.2-0.2,0.4-0.3,0.6c-0.2,0.3-0.5,0.6-0.8,0.8c-0.5,0.2-1,0.4-1.6,0.4C9.6,2.7,9.5,2.7,9.5,2.7z M7.1,1C7.1,1,7.1,1,7.1,1c0.2,0.5,0.6,0.9,1,1.2c0.5,0.2,1,0.4,1.5,0.3c0.5,0,1-0.1,1.5-0.3c0.3-0.2,0.6-0.4,0.8-0.7C11.9,1.3,12,1.1,12.1,1H7.1z"></path>
  </symbol>
</svg>
