<svg xmlns="http://www.w3.org/2000/svg" viewBox="0 0 19.5 18.5">
  <symbol id="sofa">
      <path d="M18.6,5.5c-0.5-0.5-1.3-0.8-2-0.8c-0.1,0-0.1,0-0.2,0V3.3c0-1.8-1.5-3.3-3.3-3.3H6.4C4.5,0,3,1.5,3,3.3v1.4c0,0-0.1,0-0.2,0C1.3,4.7,0,6,0,7.6c0,1,0.5,1.9,1.3,2.4c0,0.1,0,0.2,0,0.3c0,0.2,0,0.4,0,0.8v2.2c0,1.5,1.2,2.6,2.6,2.6c0,0,0,0,0,0h0.4l-0.2,2.7h1.1l0.8-2.7h7.3l0.8,2.7h1.1l-0.2-2.7h0.4c1.5,0,2.6-1.2,2.6-2.6c0,0,0,0,0,0v-2.2c0-0.3,0-0.5,0-0.7c0-0.1,0-0.2,0-0.3c0,0,0-0.1,0-0.1c1.3-0.9,1.7-2.7,0.8-4C18.9,5.8,18.8,5.7,18.6,5.5L18.6,5.5z M4,3.3C4,2,5.1,1,6.4,1h6.8c1.3,0,2.3,1,2.3,2.3v1.6c-1.1,0.5-1.7,1.5-1.7,2.6v3.1c0,0.2-0.2,0.4-0.4,0.4c0,0,0,0,0,0H6.2c-0.2,0-0.4-0.2-0.4-0.4l0,0V7.6c0-1.1-0.7-2.2-1.7-2.6V3.3L4,3.3z M18.2,8.5c-0.2,0.3-0.4,0.5-0.6,0.7c0,0-0.1,0-0.1,0.1c0,0-0.1,0.1-0.1,0.1c-0.1,0.1-0.1,0.2-0.1,0.3c-0.1,0.2-0.1,0.4-0.1,0.5c0,0.2,0,0.5,0,0.9v2.2c0,0.9-0.7,1.6-1.6,1.6H4c-0.9,0-1.6-0.7-1.6-1.6v-2.2c0-0.3,0-0.6,0-0.8c0-0.1,0-0.3-0.1-0.4c0-0.2-0.1-0.3-0.2-0.4C2.1,9.4,2,9.3,2,9.2c0,0-0.1-0.1-0.1-0.1C1.6,9,1.4,8.8,1.2,8.5C0.7,7.6,1.1,6.4,2,5.9C2.9,5.4,4,5.7,4.5,6.7c0.2,0.3,0.2,0.6,0.2,0.9v3.1c0,0.8,0.6,1.4,1.4,1.4h7.1c0.8,0,1.4-0.6,1.4-1.4c0,0,0,0,0,0V7.6c0-1,0.8-1.9,1.9-1.9c1,0,1.9,0.8,1.9,1.9C18.5,7.9,18.4,8.2,18.2,8.5L18.2,8.5z M7.8,4.8c0.3,0,0.5-0.2,0.5-0.5S8.1,3.8,7.8,3.8S7.3,4,7.3,4.3S7.5,4.8,7.8,4.8z M11.8,4.8c0.3,0,0.5-0.2,0.5-0.5S12,3.8,11.8,3.8S11.2,4,11.2,4.3S11.5,4.8,11.8,4.8z M7.8,8.5c0.3,0,0.5-0.2,0.5-0.5S8.1,7.5,7.8,7.5S7.3,7.7,7.3,8S7.5,8.5,7.8,8.5z M11.8,8.5c0.3,0,0.5-0.2,0.5-0.5S12,7.5,11.8,7.5S11.2,7.7,11.2,8S11.5,8.5,11.8,8.5z"></path>
  </symbol>
</svg>
