<svg xmlns="http://www.w3.org/2000/svg" viewBox="0 0 18 17">
  <symbol id="sort">
      <path d="M1.3,6.2h7.1c0.5,1,1.5,1.7,2.7,1.7c1.2,0,2.3-0.7,2.7-1.8h2.8c0.6,0,1-0.4,1-1s-0.4-1-1-1H14c-0.4-1.3-1.5-2.2-2.9-2.2c-1.5,0-2.6,1-2.9,2.3H1.3c-0.6,0-1,0.4-1,1C0.3,5.8,0.7,6.2,1.3,6.2z M11.1,4c0.5,0,1,0.4,1,1s-0.4,1-1,1c-0.6,0-1-0.4-1-1S10.6,4,11.1,4z"/>
      <path d="M17,10.8H8.7C8.3,9.7,7.2,8.9,5.9,8.9s-2.4,0.8-2.8,1.9H1.3c-0.6,0-1,0.4-1,1c0,0.6,0.4,1,1,1h1.8c0.4,1.2,1.5,2.1,2.8,2.1c1.3,0,2.5-0.9,2.8-2.1H17c0.5,0,1-0.4,1-1C18,11.2,17.6,10.8,17,10.8z M5.9,13c-0.6,0-1-0.4-1-1s0.5-1,1-1s1,0.4,1,1S6.4,13,5.9,13z"/>
  </symbol>
</svg>
