<?xml version="1.0" encoding="utf-8"?>
<!-- Generator: Adobe Illustrator 27.9.0, SVG Export Plug-In . SVG Version: 6.00 Build 0)  -->
<svg version="1.1" id="spirit" xmlns="http://www.w3.org/2000/svg" xmlns:xlink="http://www.w3.org/1999/xlink" x="0px" y="0px"
	 width="80px" height="80px" viewBox="0 0 80 80" enable-background="new 0 0 80 80" xml:space="preserve">
<circle fill-rule="evenodd" clip-rule="evenodd" fill="#FF0000" cx="40.261" cy="40.391" r="39.5"/>
<path id="意" fill-rule="evenodd" clip-rule="evenodd" fill="#FFFFFF" stroke="#FFFFFF" stroke-width="0.25" stroke-miterlimit="10" d="
	M26.359,46.199h-5.111c-0.826,0.015-1.65-0.033-2.469-0.142v2.299c0.795-0.08,1.595-0.113,2.394-0.099h1.254
	c0.302,0.616,0.419,0.877,0.628,1.397h-2.899c-0.923,0.025-1.848-0.015-2.765-0.118v2.299c0.887-0.104,1.779-0.143,2.672-0.118
	h15.521c0.891-0.025,1.781,0.015,2.666,0.118v-2.299c-0.879,0.104-1.764,0.144-2.648,0.118h-3.16
	c0.248-0.454,0.473-0.92,0.674-1.397h1.301c0.83-0.013,1.66,0.02,2.487,0.099v-2.301c-0.817,0.109-1.639,0.156-2.463,0.142h-5.484
	v-0.211c-0.003-0.501,0.043-1,0.139-1.492h-2.881c0.091,0.492,0.138,0.991,0.139,1.492v0.213
	C26.354,46.199,26.359,46.199,26.359,46.199z M25.615,49.655c-0.177-0.476-0.378-0.942-0.604-1.397h5.484
	c-0.196,0.479-0.421,0.946-0.673,1.397H25.615z M27.264,60.128l-1.138,0.877c0.978,0.732,1.859,1.583,2.625,2.535L30.68,62
	c-0.718-0.683-1.486-1.31-2.3-1.876h5.274c0.162,0,0.371,0,0.651,0.024h0.603c0.465,0.024,0.488,0.024,0.79,0.047
	c-0.067-0.661-0.099-1.325-0.093-1.99v-3.531c-0.017-0.704,0.015-1.408,0.093-2.108c-0.651,0.047-1.139,0.071-2.532,0.071H22.362
	c-1.255,0-1.858-0.024-2.509-0.071c0.073,0.7,0.105,1.404,0.093,2.108v3.744c0.014,0.594-0.017,1.188-0.093,1.778
	c0.651-0.047,1.278-0.071,2.277-0.071h5.135L27.264,60.128z M22.362,54.536h10.827v0.972H22.362V54.536L22.362,54.536z
	 M22.362,57.262h10.827v0.972H22.362V57.262L22.362,57.262z M19.132,66.289c1.152-1.408,2.056-3.003,2.672-4.715l-2.253-0.948
	c-0.526,1.565-1.4,2.99-2.556,4.17L19.132,66.289z M25.127,62.593c-0.017-0.587,0.022-1.174,0.116-1.754h-2.666
	c0.096,0.58,0.134,1.167,0.116,1.754v2.085c0,1.398,0.767,1.659,4.81,1.659c4.019,0,4.972-0.142,5.623-0.853
	c0.418-0.474,0.603-1.232,0.673-3.009c-0.828-0.08-1.636-0.296-2.394-0.64c0.063,0.657-0.016,1.319-0.232,1.942
	c-0.232,0.356-0.976,0.45-3.671,0.45c-0.67,0.009-1.338-0.039-1.999-0.142c-0.208,0.001-0.378-0.168-0.378-0.376
	c0-0.025,0.002-0.049,0.007-0.074v-1.042L25.127,62.593z M38.557,64.512c-0.948-1.478-2.028-2.867-3.229-4.148l-2.045,1.185
	c1.218,1.367,2.285,2.86,3.184,4.455L38.557,64.512z"/>
<path id="気" fill-rule="evenodd" clip-rule="evenodd" fill="#FFFFFF" stroke="#FFFFFF" stroke-width="0.25" stroke-miterlimit="10" d="
	M59.786,48.405c0.97-0.012,1.94,0.036,2.904,0.142V45.75c-0.962,0.131-1.934,0.187-2.904,0.166H49.079
	c0.604-1.255,0.604-1.255,0.814-1.658l-2.789-0.427c-0.079,0.524-0.252,1.03-0.511,1.492c-1.03,2.048-2.46,3.869-4.206,5.355
	c0.684,0.532,1.294,1.154,1.812,1.849c1.318-1.227,2.481-2.613,3.462-4.123H59.79L59.786,48.405z M57.183,63.498
	c-1.464-1.326-2.626-2.298-4.043-3.436c0.544-0.623,1.049-1.28,1.51-1.966c0.512-0.711,0.766-1.067,0.999-1.327l-2.487-1.209
	c-0.451,1.143-1.14,2.176-2.021,3.033c-1.649-1.137-2.416-1.634-4.112-2.63l-1.697,1.588c1.4,0.819,2.75,1.72,4.043,2.701
	c-1.961,1.503-4.129,2.716-6.436,3.601c0.694,0.647,1.282,1.398,1.742,2.228c2.427-1.1,4.688-2.536,6.715-4.265
	c1.411,1.144,2.761,2.362,4.043,3.649L57.183,63.498z M57.718,55.301c-0.091,2.594,0.271,5.183,1.068,7.653
	c0.651,1.801,1.836,3.034,2.882,3.034c1.417,0,2.137-1.517,2.509-5.234c-0.746-0.352-1.422-0.833-1.999-1.422
	c-0.069,1.943-0.232,3.061-0.557,3.507c-0.427-0.443-0.71-1.004-0.814-1.611c-0.479-1.994-0.697-4.041-0.651-6.09
	c-0.008-0.72,0.031-1.441,0.117-2.156c-0.904,0.086-1.811,0.118-2.719,0.099H45.752c-0.669,0.02-1.337-0.02-1.999-0.118v2.488
	c0.887-0.11,1.779-0.157,2.672-0.142h11.292L57.718,55.301z M46.984,51.771c0.733-0.076,1.47-0.109,2.207-0.099h9.27
	c0.823-0.02,1.646,0.02,2.463,0.118v-2.346c-0.818,0.093-1.64,0.132-2.463,0.118h-9.736c-0.582,0.003-1.164-0.031-1.742-0.099v2.299
	L46.984,51.771z"/>
<path id="心" fill-rule="evenodd" clip-rule="evenodd" fill="#FFFFFF" stroke="#FFFFFF" stroke-width="0.25" stroke-miterlimit="10" d="
	M32.451,35.412c0,2.917,1.05,4.147,7.858,4.147c6.368,0,8.468-1.127,9.282-5.934c0.109-0.935-0.561-1.781-1.495-1.89
	c-0.132-0.016-0.267-0.016-0.399,0c-0.831-0.055-1.567,0.535-1.694,1.359c-0.373,2.718-1.185,3.215-5.826,3.215
	c-3.456,0-3.929-0.332-3.929-1.624V19.899c-0.185-1.048-1.183-1.747-2.23-1.563c-0.798,0.14-1.422,0.765-1.563,1.563v15.513H32.451z
	 M26.663,24.009c-0.602,2.301-1.538,4.501-2.777,6.53c-0.249,0.337-0.391,0.742-0.407,1.16c0.057,0.953,0.876,1.68,1.829,1.624
	c0.749-0.027,1.434-0.425,1.829-1.061c1.4-2.263,2.43-4.736,3.048-7.325c0.038-0.152,0.06-0.308,0.068-0.464
	c-0.063-0.997-0.924-1.755-1.922-1.692c-0.003,0-0.006,0-0.009,0.001C27.55,22.748,26.856,23.26,26.663,24.009z M49.558,21.556
	c-0.375-0.33-0.855-0.517-1.355-0.53c-0.974-0.028-1.795,0.719-1.862,1.691c0.012,0.498,0.233,0.967,0.609,1.293
	c1.561,1.562,2.967,3.272,4.2,5.104c0.343,0.577,0.956,0.939,1.626,0.961c1.051,0.018,1.923-0.807,1.964-1.856
	c-0.021-0.428-0.161-0.841-0.407-1.193c-1.347-2.023-2.954-3.862-4.779-5.469L49.558,21.556L49.558,21.556z"/>
<path id="ハートカード_1" fill-rule="evenodd" clip-rule="evenodd" fill="#FFFFFF" d="M44.86,9.889
	c-0.889-5.708-7.243-6.104-8.731-0.142c-0.817,3.27,1.796,5.268,3.416,7.086c1.237,1.3,2.106,2.906,2.516,4.653
	c0.356-0.678,2.279-2.074,4.327-2.889c2.24-0.889,5.464-1.256,6.237-4.543C54.036,8.054,48.092,5.488,44.86,9.889z"/>
</svg>
