<svg xmlns="http://www.w3.org/2000/svg" width="15.137" height="16.769" viewBox="0 0 15.137 16.769">
    <symbol id="square">
        <g transform="translate(0.5 0.5)">
            <path d="M11.569,19.208a2.074,2.074,0,0,1-1.035-.277l-5.5-3.141A2.078,2.078,0,0,1,4,14V7.714A2.077,2.077,0,0,1,5.035,5.922l5.5-3.143a2.071,2.071,0,0,1,2.069,0l5.5,3.141a2.078,2.078,0,0,1,1.037,1.792V14A2.077,2.077,0,0,1,18.1,15.789l-5.5,3.143A2.072,2.072,0,0,1,11.569,19.208Zm0-15.705a1.072,1.072,0,0,0-.535.143l-5.5,3.143A1.073,1.073,0,0,0,5,7.714V14a1.074,1.074,0,0,0,.535.926l5.5,3.141a1.071,1.071,0,0,0,1.073,0l5.5-3.143A1.073,1.073,0,0,0,18.137,14V7.714a1.074,1.074,0,0,0-.535-.926l-5.5-3.141A1.074,1.074,0,0,0,11.569,3.5Z" transform="translate(-4.5 -3.003)"/>
            <path d="M11.762,14.906a.5.5,0,0,1-.25-.067L4.655,10.873a.5.5,0,0,1,.5-.866l6.606,3.821,6.606-3.821a.5.5,0,0,1,.5.866l-6.857,3.966A.5.5,0,0,1,11.762,14.906Z" transform="translate(-4.693 -6.546)"/>
            <path d="M18,26.417a.5.5,0,0,1-.5-.5V18a.5.5,0,0,1,1,0v7.917A.5.5,0,0,1,18,26.417Z" transform="translate(-10.931 -10.148)"/>
        </g>
    </symbol>
</svg>
