<svg xmlns="http://www.w3.org/2000/svg" width="16" height="14" viewBox="0 0 16 14">
  <g transform="translate(0 -32)" id="store">
    <g transform="translate(0 32)">
      <path d="M15.985,36.379l-1-4A.5.5,0,0,0,14.5,32H1.5a.5.5,0,0,0-.485.379l-1,4A.489.489,0,0,0,0,36.5a2.536,2.536,0,0,0,1,2.031V45.5a.5.5,0,0,0,.5.5h5a.5.5,0,0,0,.5-.5V42H9v3.5a.5.5,0,0,0,.5.5h5a.5.5,0,0,0,.5-.5V38.531A2.536,2.536,0,0,0,16,36.5.489.489,0,0,0,15.985,36.379ZM14,45H10V41.5a.5.5,0,0,0-.5-.5h-3a.5.5,0,0,0-.5.5V45H2V38.96a2.218,2.218,0,0,0,.375.04,2.332,2.332,0,0,0,1.875-.967,2.3,2.3,0,0,0,3.75,0,2.3,2.3,0,0,0,3.75,0A2.332,2.332,0,0,0,13.625,39,2.218,2.218,0,0,0,14,38.96Zm-.375-7a1.443,1.443,0,0,1-1.375-1.5.5.5,0,1,0-1,0A1.443,1.443,0,0,1,9.875,38,1.443,1.443,0,0,1,8.5,36.5a.5.5,0,1,0-1,0A1.443,1.443,0,0,1,6.125,38,1.443,1.443,0,0,1,4.75,36.5a.5.5,0,1,0-1,0A1.443,1.443,0,0,1,2.375,38,1.438,1.438,0,0,1,1,36.558L1.891,33H14.11L15,36.558A1.44,1.44,0,0,1,13.625,38Z" transform="translate(0 -32)"/>
    </g>
  </g>
</svg>
