<?xml version="1.0" encoding="utf-8"?>
<!-- Generator: Adobe Illustrator 27.8.1, SVG Export Plug-In . SVG Version: 6.00 Build 0)  -->
<svg version="1.1" id="レイヤー_1" xmlns="http://www.w3.org/2000/svg" xmlns:xlink="http://www.w3.org/1999/xlink" x="0px"
	 y="0px" width="17.9px" height="27px" viewBox="0 0 17.9 27" style="enable-background:new 0 0 17.9 27;" xml:space="preserve">
<style type="text/css">
	.st0{fill-rule:evenodd;clip-rule:evenodd;fill:#A1A1A1;}
</style>
<path id="tel" class="st0" d="M14.7,1H3.3C2,1,1,2,1,3.2v20.5C1,25,2,26,3.2,26c0,0,0,0,0,0h11.4c1.3,0,2.3-1,2.3-2.3c0,0,0,0,0,0
	V3.2C16.9,2,15.9,1,14.7,1z M6.7,2.4h4.5v0.7H6.7V2.4z M9,25.2c-0.4,0-0.8-0.4-0.8-0.8c0-0.5,0.3-0.9,0.8-0.9c0.5,0,0.9,0.3,0.9,0.8
	c0,0,0,0.1,0,0.1C9.8,24.9,9.4,25.2,9,25.2z M15.4,22.7H2.5V4.1h12.9L15.4,22.7L15.4,22.7z"/>
</svg>
