<svg version="1.1" xmlns="http://www.w3.org/2000/svg" viewBox="0 0 17.9 27">
  <symbol id="tel">
    <path d="M14.917,0.528H3.087C1.738,0.528,0.7,1.566,0.7,2.811v21.274c0,1.349,1.038,2.387,2.283,2.387l0,0h11.83c1.349,0,2.387-1.038,2.387-2.387l0,0V2.811C17.2,1.566,16.162,0.528,14.917,0.528z M6.615,1.981h4.67v0.726h-4.67V1.981z M9.002,25.642c-0.415,0-0.83-0.415-0.83-0.83c0-0.519,0.311-0.934,0.83-0.934c0.519,0,0.934,0.311,0.934,0.83v0.104C9.832,25.33,9.417,25.642,9.002,25.642z M15.643,23.047H2.257V3.745h13.387V23.047L15.643,23.047z"/>
  </symbol>
</svg>