<svg version="1.1" xmlns="http://www.w3.org/2000/svg" xmlns:xlink="http://www.w3.org/1999/xlink">
<symbol id="time" viewBox="0 0 12 12">
	<path d="M0.3,6c0-3.2,2.6-5.7,5.7-5.7c3.2,0,5.7,2.6,5.7,5.7c0,3.2-2.6,5.7-5.7,5.7C2.8,11.7,0.3,9.2,0.3,6z M1.2,6
		c0,2.7,2.2,4.8,4.8,4.8c2.7,0,4.8-2.2,4.8-4.8c0-2.7-2.2-4.8-4.8-4.8C3.3,1.2,1.2,3.3,1.2,6z M7.9,7.4l-2.1-1C5.7,6.3,5.6,6.2,5.6,6
		V2.8c0-0.2,0.2-0.4,0.4-0.4c0.2,0,0.4,0.2,0.4,0.4v2.9l1.9,0.9C8.5,6.8,8.6,7,8.5,7.3C8.4,7.4,8.3,7.5,8.1,7.5C8,7.5,8,7.5,7.9,7.4z
		"/>
</symbol>
</svg>
