<svg xmlns="http://www.w3.org/2000/svg" width="13.711" height="18" viewBox="0 0 13.711 18">
  <g transform="translate(-61)" id="todolist">
    <path d="M74.146,1.622a1.918,1.918,0,0,0-1.367-.567h-.872V.879A.88.88,0,0,0,71.028,0H64.7a.88.88,0,0,0-.879.879v.176h-.875a1.935,1.935,0,0,0-1.932,1.931L61,16.064A1.933,1.933,0,0,0,62.931,18h9.833A1.935,1.935,0,0,0,74.7,16.069L74.711,2.99a1.922,1.922,0,0,0-.565-1.369Zm-9.27-.567h5.977V2.109H64.876Zm8.767,15.013a.88.88,0,0,1-.878.878H62.931a.878.878,0,0,1-.878-.88l.014-13.078a.88.88,0,0,1,.878-.878h.875v.176a.88.88,0,0,0,.879.879h6.328a.88.88,0,0,0,.879-.879V2.109h.872a.878.878,0,0,1,.878.88Z"/>
    <path d="M246.626,171.055h3.747a.527.527,0,0,0,0-1.055h-3.747a.527.527,0,0,0,0,1.055Z" transform="translate(-178.592 -164.023)"/>
    <path d="M246.626,271.055h3.747a.527.527,0,0,0,0-1.055h-3.747a.527.527,0,0,0,0,1.055Z" transform="translate(-178.592 -260.508)"/>
    <path d="M250.388,370h-3.762a.527.527,0,0,0,0,1.055h3.762a.527.527,0,0,0,0-1.055Z" transform="translate(-178.592 -356.992)"/>
    <path d="M131.3,139.918l-1.216,1.216-.287-.287a.527.527,0,0,0-.746.746l.66.66a.527.527,0,0,0,.746,0l1.589-1.589a.527.527,0,0,0-.746-.746Z" transform="translate(-65.514 -134.85)"/>
    <path d="M131.3,247.556l-1.216,1.216-.287-.287a.527.527,0,0,0-.746.746l.66.66a.527.527,0,0,0,.746,0l1.589-1.589a.527.527,0,0,0-.746-.746Z" transform="translate(-65.514 -238.704)"/>
    <path d="M131.3,347.556l-1.216,1.216-.287-.287a.527.527,0,0,0-.746.746l.66.66a.527.527,0,0,0,.746,0l1.589-1.589a.527.527,0,1,0-.746-.746Z" transform="translate(-65.514 -335.188)"/>
  </g>
</svg>
