<svg height="14.091" viewBox="0 0 17 14.091" width="17" xmlns="http://www.w3.org/2000/svg"><path d="m1.5 4h10.909a.5.5 0 0 1 .5.5v9.455a.5.5 0 0 1 -.5.5h-10.909a.5.5 0 0 1 -.5-.5v-9.455a.5.5 0 0 1 .5-.5zm10.409 1h-9.909v8.455h9.909z" transform="translate(-1 -4)"/><path d="m24 11.5h2.909a.5.5 0 0 1 .354.146l2.182 2.182a.5.5 0 0 1 .146.354v3.636a.5.5 0 0 1 -.5.5h-5.091a.5.5 0 0 1 -.5-.5v-5.818a.5.5 0 0 1 .5-.5zm2.7 1h-2.2v4.818h4.091v-2.929z" transform="translate(-12.591 -7.864)"/><path d="m6.318 28.136a2.318 2.318 0 1 1 2.318-2.318 2.321 2.321 0 0 1 -2.318 2.318zm0-3.636a1.318 1.318 0 1 0 1.318 1.318 1.32 1.32 0 0 0 -1.318-1.318z" transform="translate(-2.545 -14.045)"/><path d="m25.818 28.136a2.318 2.318 0 1 1 2.318-2.318 2.321 2.321 0 0 1 -2.318 2.318zm0-3.636a1.318 1.318 0 1 0 1.318 1.318 1.32 1.32 0 0 0 -1.318-1.318z" transform="translate(-12.591 -14.045)"/></svg>