<svg version="1.1" xmlns="http://www.w3.org/2000/svg" viewBox="0 0 33 33">
  <symbol id="voice-staff">
    <path d="M32.6,16.4c-0.004-0.157-0.026-0.308-0.034-0.464c-0.198-4.794-2.505-9.042-6.038-11.844c-0.059-0.047-0.123-0.089-0.183-0.136c-0.328-0.252-0.66-0.498-1.007-0.726c-0.195-0.129-0.4-0.242-0.6-0.362c-0.225-0.133-0.445-0.272-0.677-0.395c-0.311-0.166-0.633-0.312-0.955-0.457c-0.138-0.062-0.271-0.131-0.411-0.189c-0.388-0.162-0.786-0.301-1.188-0.432c-0.09-0.029-0.178-0.065-0.269-0.093c-0.418-0.128-0.845-0.232-1.276-0.326c-0.091-0.02-0.179-0.045-0.27-0.063c-0.397-0.079-0.801-0.134-1.207-0.183c-0.143-0.017-0.283-0.042-0.426-0.056c-0.324-0.03-0.654-0.039-0.983-0.049c-0.193-0.007-0.381-0.029-0.575-0.029c-0.054,0-0.106,0.008-0.16,0.008C16.293,0.605,16.247,0.599,16.2,0.6c-0.321,0.004-0.634,0.036-0.951,0.059c-0.148,0.011-0.299,0.012-0.446,0.028C12.342,0.932,10.05,1.751,8.042,3c-4.4,2.71-7.379,7.458-7.608,12.925C0.426,16.084,0.404,16.24,0.4,16.4v0.1c0,0.017,0.002,0.033,0.003,0.049c0,0.016-0.003,0.032-0.003,0.049C0.4,25.436,7.608,32.6,16.5,32.6s16.1-7.164,16.1-16.002c0-0.016-0.002-0.032-0.003-0.049c0-0.017,0.003-0.033,0.003-0.049V16.4z M16.5,31.6c-4.313,0-8.199-1.815-10.953-4.706C7.597,23.695,10.88,21.559,14.7,21c-3.8-1.1-6-5.2-4.8-9c1.1-3.8,5.2-6,9-4.8c3.8,1.2,6,5.2,4.8,9C23,18.5,21.3,20.3,19,21c3.612,0.463,6.866,2.397,8.997,5.3C25.225,29.537,21.103,31.6,16.5,31.6z"/>
  </symbol>
</svg>