<svg version="1.1" xmlns="http://www.w3.org/2000/svg" viewBox="0 0 43.5 30.6">
  <symbol id="voice-customer">
    <path d="M18.7,23.5l-0.5,0.1c-0.1,0-0.3,0-0.5,0.1c-0.3,0-0.7,0.1-1,0.1h-0.4c-0.2,0-0.4,0-0.5,0h-0.3L12.6,26l-1.4,1.1l-0.6-4.3c-4.2-1.6-7-5.1-7-9.2C3.5,8,9,3.5,15.7,3.5c1.3,0,2.6,0.2,3.9,0.5c0.9-0.7,2-1.3,3.1-1.8c0.2-0.1,0.4-0.2,0.7-0.3l0,0l0,0c-2.4-1.1-5-1.7-7.6-1.7C11.8,0.2,8,1.5,5,3.9s-4.7,5.9-4.8,9.7c0.1,4.9,2.9,9.3,7.3,11.4l0.4,2.5c0.2,1.2,0.9,2.2,2,2.6c0.4,0.2,0.8,0.2,1.2,0.2c0.7,0,1.4-0.2,2-0.7l3.4-2.7c1.6-0.1,3.1-0.4,4.6-0.9c0.3-0.1,0.6-0.2,1-0.3l0,0l0,0C20.9,25.3,19.7,24.5,18.7,23.5z M29.8,2.7c-7.4,0-13.5,5.1-13.5,11.5c0,6.3,6,11.4,13.3,11.5l3.9,3.1c0.2,0.2,0.5,0.3,0.8,0.3c0.2,0,0.3,0,0.5-0.1c0.4-0.2,0.7-0.6,0.8-1l0.5-3.5c4.4-2,7.2-5.9,7.2-10.1C43.3,7.8,37.2,2.7,29.8,2.7z M30.5,19.8h-6.1c-0.4,0-0.8-0.3-0.8-0.8c0-0.4,0.3-0.8,0.8-0.8h6.1c0.4,0,0.8,0.3,0.8,0.8C31.3,19.4,30.9,19.8,30.5,19.8L30.5,19.8z M23.7,15.3c0-0.4,0.3-0.8,0.8-0.8h10.6c0.4,0,0.8,0.3,0.8,0.7S35.6,16,35.2,16l0,0H24.4C24,16.1,23.7,15.7,23.7,15.3L23.7,15.3L23.7,15.3z M35.1,12.4H24.4c-0.4,0-0.8-0.4-0.7-0.8c0-0.4,0.3-0.7,0.7-0.7H35c0.4,0,0.8,0.3,0.8,0.7C35.8,12,35.5,12.4,35.1,12.4L35.1,12.4L35.1,12.4z"/>
  </symbol>
</svg>