<?xml version="1.0" encoding="utf-8"?>
<!-- Generator: Adobe Illustrator 27.9.0, SVG Export Plug-In . SVG Version: 6.00 Build 0)  -->
<svg version="1.1" id="volume-discounts" xmlns="http://www.w3.org/2000/svg" xmlns:xlink="http://www.w3.org/1999/xlink" x="0px"
	 y="0px" width="91px" height="80px" viewBox="0 0 91 80" enable-background="new 0 0 91 80" xml:space="preserve">
<path id="シェイプ_1077" fill-rule="evenodd" clip-rule="evenodd" fill="#EC51B0" d="M86.804,23.034H4.202
	c-1.71-0.004-3.104,1.373-3.119,3.083v9.35c0.015,1.71,1.408,3.088,3.119,3.084h3.847l4.885,37.38
	c0.314,2.011,2.049,3.491,4.084,3.484h56.963c2.035,0.008,3.771-1.473,4.084-3.484l4.886-37.38h3.847
	c1.711,0.004,3.105-1.374,3.119-3.084v-9.35C89.902,24.409,88.512,23.033,86.804,23.034z M27.422,20.197
	c4.766-9.986,16.726-14.216,26.71-9.45c4.138,1.976,7.474,5.311,9.45,9.45h9.061C67.817,5.207,51.752-3.032,36.762,1.795
	c-8.739,2.814-15.588,9.663-18.402,18.402H27.422z"/>
<path id="まとめ" fill-rule="evenodd" clip-rule="evenodd" fill="#FFFFFF" stroke="#FFFFFF" stroke-width="0.25" stroke-linecap="round" stroke-linejoin="round" stroke-miterlimit="10" d="
	M20.757,49.115c0-0.744,0.853-1.356,2.406-1.356c0.601,0.007,1.2,0.058,1.793,0.154c0.022,0.394,0.022,0.7,0.022,0.94
	c0,1.264-0.765,1.597-1.925,1.597C21.544,50.444,20.757,49.941,20.757,49.115z M27.602,33.893h-2.953
	c0.088,0.498,0.131,1.003,0.131,1.509v1.028h-0.853c-1.809-0.041-3.613-0.201-5.401-0.48l0.066,2.488
	c1.778,0.225,3.566,0.355,5.358,0.389h0.809c-0.022,0.743-0.022,1.53-0.022,2.252h-1.05c-1.765-0.018-3.526-0.157-5.271-0.415
	l0.022,2.581c1.443,0.175,3.936,0.284,5.205,0.284h1.137c0.022,0.656,0.044,1.356,0.088,2.034c-0.438-0.044-0.896-0.065-1.355-0.065
	c-3.368,0-5.402,1.556-5.402,3.761c0,2.319,1.838,3.653,5.336,3.653c2.887,0,4.308-1.444,4.308-3.306c0-0.24,0-0.503-0.021-0.809
	c1.626,0.77,3.117,1.796,4.417,3.039l1.575-2.449c-1.794-1.509-3.88-2.634-6.126-3.306c-0.066-0.875-0.11-1.772-0.154-2.603
	c2.1-0.065,3.806-0.219,5.774-0.437l0.022-2.581c-1.772,0.241-3.631,0.416-5.84,0.525v-2.252c2.122-0.11,4.112-0.306,5.555-0.486
	l0.022-2.515c-1.831,0.309-3.678,0.506-5.533,0.59c0-0.349,0-0.681,0.022-0.896c0.018-0.514,0.061-1.027,0.133-1.536L27.602,33.893z
	 M40.795,29.468l-2.733,1.115c0.984,2.318,2.034,4.658,3.039,6.515c-2.099,1.556-3.63,3.367-3.63,5.773
	c0,3.762,3.306,4.965,7.654,4.965c2.351,0.021,4.7-0.161,7.02-0.546l0.044-3.149c-2.348,0.524-4.746,0.795-7.151,0.809
	c-3.039,0-4.548-0.83-4.548-2.406c0-1.53,1.224-2.777,3.039-3.98c1.975-1.187,4.011-2.267,6.101-3.237
	c0.81-0.416,1.509-0.788,2.165-1.181l-1.509-2.537c-0.637,0.505-1.317,0.951-2.034,1.334c-1.028,0.59-2.931,1.53-4.724,2.581
	c-1.039-1.959-1.953-3.984-2.734-6.059L40.795,29.468z M69.321,34.441l-3.014-0.285c-0.01,0.696-0.068,1.39-0.175,2.078
	c-0.044,0.328-0.108,0.678-0.194,1.05c-1.729,0.072-3.421,0.519-4.959,1.312c-0.154-0.459-0.285-0.919-0.394-1.334
	c-0.175-0.656-0.35-1.378-0.486-2.099l-2.865,0.896c0.358,0.731,0.65,1.492,0.875,2.274c0.194,0.59,0.372,1.181,0.59,1.772
	c-1.991,1.755-3.163,4.259-3.236,6.911c0,2.82,1.662,4.352,3.477,4.352c1.618,0,2.843-0.722,4.308-2.319
	c0.219,0.285,0.486,0.569,0.744,0.854l2.208-1.75c-0.423-0.417-0.825-0.855-1.203-1.312c1.304-2.174,2.302-4.516,2.968-6.963
	c2.181,0.563,3.663,2.584,3.543,4.833c0,2.733-1.903,5.205-6.692,5.599l1.663,2.537c4.548-0.7,7.85-3.346,7.85-7.983
	c0.165-3.529-2.251-6.657-5.707-7.39c0.065-0.284,0.131-0.546,0.194-0.831c0.133-0.545,0.331-1.617,0.506-2.21L69.321,34.441
	L69.321,34.441z M58.014,46.797c0.052-1.516,0.623-2.968,1.619-4.112c0.538,1.461,1.218,2.866,2.033,4.194
	c-0.809,0.984-1.618,1.662-2.406,1.662s-1.247-0.677-1.247-1.748L58.014,46.797L58.014,46.797z M61.753,40.979
	c1.072-0.656,2.273-1.073,3.522-1.225c-0.486,1.636-1.139,3.219-1.945,4.724c-0.624-1.121-1.152-2.294-1.577-3.504
	C61.753,40.974,61.753,40.979,61.753,40.979z"/>
<path id="割" fill-rule="evenodd" clip-rule="evenodd" fill="#FFFFFF" stroke="#FFFFFF" stroke-width="0.25" stroke-linecap="round" stroke-linejoin="round" stroke-miterlimit="10" d="
	M43.114,67.65v1.728H39.07V67.65H43.114z M36.891,72.081h2.175v-0.895h4.044v0.712h2.297v-6.059h-8.516v6.239V72.081z
	 M44.248,58.261h-2.073v-1.097h-2.211v1.097h-2.073v-1.503h6.361v1.503H44.248z M42.216,53.242H39.9v1.706h-4.146v3.475h0.996v1.545
	h3.209v0.854H36.95v1.605h3.007v0.875h-4.145v1.847h10.451v-1.847h-4.084v-0.875h2.968v-1.605h-2.968v-0.854h3.248v-1.545h1.056
	v-3.475h-4.265v-1.706C42.219,53.242,42.216,53.242,42.216,53.242z M49.633,55.274h-2.297v11.36h2.297V55.274z M51.548,53.49v15.647
	c0.034,0.217-0.114,0.42-0.33,0.454c-0.052,0.008-0.105,0.006-0.157-0.007c-0.406,0-1.564,0.02-2.743-0.041
	c0.373,0.794,0.64,1.635,0.792,2.5c1.26,0.103,2.527-0.063,3.718-0.486c0.814-0.366,1.057-1.057,1.057-2.398V53.49h-2.334H51.548z"
	/>
</svg>
