<svg xmlns="http://www.w3.org/2000/svg" width="28" height="28" viewBox="0 0 28 28"><g transform="translate(-4.591 -5.592)"><circle cx="14" cy="14" r="14" transform="translate(4.591 5.592)" fill="#e9e9e9"/><path d="M14,1A13,13,0,0,0,4.808,23.192,13,13,0,0,0,23.192,4.808,12.915,12.915,0,0,0,14,1m0-1A14,14,0,1,1,0,14,14,14,0,0,1,14,0Z" transform="translate(4.591 5.592)" fill="rgba(175,175,175,0.7)"/><path d="M4343.8,9645.03v-6h-6a1,1,0,1,1,0-2h6v-6a1,1,0,1,1,2,0v6h6a1,1,0,1,1,0,2h-6v6a1,1,0,0,1-2,0Z" transform="translate(-4326.211 -9618.438)" fill="#a0a0a0"/></g></svg>