<svg version="1.1" xmlns="http://www.w3.org/2000/svg" viewBox="0 0 40 35">
  <symbol id="icon-latest-stock">
    <path d="M3.7,26.3V3.7H14V9h7.2V3.7h10.4v7.8c1.2,0.5,2.2,1.2,3.2,2V0.4H0.5v29.2h18.9c-0.8-1-1.5-2.1-1.9-3.3L3.7,26.3L3.7,26.3z M38.7,30.5L35.3,27c0.8-1.5,1.3-3.1,1.3-4.8c0-2.5-0.9-4.8-2.6-6.6c-3.3-3.5-8.8-3.7-12.3-0.4c-0.1,0.1-0.3,0.3-0.4,0.4c-3.5,3.7-3.5,9.5,0,13.3c2.8,3,7.5,3.6,11,1.4l3.4,3.6c0.8,0.8,2.1,0.9,3,0.1l0.1-0.1C39.6,32.8,39.5,31.4,38.7,30.5z M31.5,26.2c-2,2.2-5.4,2.3-7.6,0.2c-0.1-0.1-0.1-0.1-0.2-0.2c-2.2-2.3-2.2-5.9,0-8.2c2-2.2,5.4-2.3,7.5-0.3c0.1,0.1,0.2,0.2,0.3,0.3C33.7,20.3,33.7,23.9,31.5,26.2z"/>
  </symbol>
</svg>