<?xml version="1.0" encoding="utf-8"?>
<!-- Generator: Adobe Illustrator 28.0.0, SVG Export Plug-In . SVG Version: 6.00 Build 0)  -->
<svg version="1.1" id="レイヤー_1" xmlns="http://www.w3.org/2000/svg" xmlns:xlink="http://www.w3.org/1999/xlink" x="0px"
	 y="0px" width="30px" height="30px" viewBox="0 0 30 30" style="enable-background:new 0 0 30 30;" xml:space="preserve">
<style type="text/css">
	.st0{clip-path:url(#SVGID_00000082330012781124169950000004448259204356939180_);}
	.st1{fill:#1877F2;}
	.st2{fill:#FFFFFF;}
</style>
<g>
	<defs>
		<rect id="SVGID_1_" width="30" height="30"/>
	</defs>
	<clipPath id="SVGID_00000068671314833596505490000011729730957917714589_">
		<use xlink:href="#SVGID_1_"  style="overflow:visible;"/>
	</clipPath>
	<g style="clip-path:url(#SVGID_00000068671314833596505490000011729730957917714589_);">
		<path class="st1" d="M30,15c0-8.3-6.7-15-15-15S0,6.7,0,15c0,7.4,5.4,13.7,12.7,14.8V19.3H8.8V15h3.8v-3.3c0-3.8,2.2-5.8,5.7-5.8
			c1.1,0,2.2,0.1,3.4,0.3v3.7h-1.9c-1.2-0.2-2.3,0.7-2.4,1.9c0,0.2,0,0.3,0,0.5V15h4.2l-0.7,4.3h-3.5v10.5C24.6,28.7,30,22.4,30,15"
			/>
		<path class="st2" d="M20.8,19.3l0.7-4.3h-4.2v-2.8c-0.1-1.2,0.8-2.2,2-2.4c0.2,0,0.3,0,0.5,0h1.9V6.2c-1.1-0.2-2.2-0.3-3.4-0.3
			c-3.4,0-5.7,2.1-5.7,5.8V15H8.8v4.3h3.8v10.5c1.6,0.2,3.1,0.2,4.7,0V19.3H20.8z"/>
	</g>
</g>
</svg>
