<?xml version="1.0" encoding="utf-8"?>
<!-- Generator: Adobe Illustrator 28.0.0, SVG Export Plug-In . SVG Version: 6.00 Build 0)  -->
<svg version="1.1" id="レイヤー_1" xmlns="http://www.w3.org/2000/svg" xmlns:xlink="http://www.w3.org/1999/xlink" x="0px"
	 y="0px" width="30px" height="30px" viewBox="0 0 30 30" style="enable-background:new 0 0 30 30;" xml:space="preserve">
<style type="text/css">
	.st0{fill:#00B900;}
	.st1{fill:#FFFFFF;}
</style>
<g id="FULL_COLOR_ICON_00000019672530755093963500000004014938884934635709_">
	<path class="st0" d="M23.5,30h-17C2.9,30,0,27.1,0,23.5v-17C0,2.9,2.9,0,6.5,0h17C27.1,0,30,2.9,30,6.5v17C30,27.1,27.1,30,23.5,30
		z"/>
	<g id="TYPE_A_00000005227665607368337150000009367869460150572710_">
		<g>
			<path class="st1" d="M25.9,13.7c0-4.9-4.9-8.9-10.9-8.9s-10.9,4-10.9,8.9c0,4.4,3.9,8.1,9.1,8.7c0.4,0.1,0.8,0.2,1,0.5
				c0.1,0.3,0.1,0.7,0,1c0,0-0.1,0.8-0.2,0.9c0,0.3-0.2,1.1,0.9,0.6c1.2-0.5,6.3-3.7,8.6-6.3l0,0C25.1,17.4,25.9,15.6,25.9,13.7"/>
			<g>
				<path class="st0" d="M12.7,11.3H12c-0.1,0-0.2,0.1-0.2,0.2v4.8c0,0.1,0.1,0.2,0.2,0.2h0.8c0.1,0,0.2-0.1,0.2-0.2v-4.8
					C12.9,11.4,12.8,11.3,12.7,11.3"/>
				<path class="st0" d="M18,11.3h-0.8c-0.1,0-0.2,0.1-0.2,0.2v2.8l-2.2-2.9l0,0l0,0l0,0l0,0l0,0l0,0l0,0l0,0l0,0l0,0l0,0l0,0l0,0
					l0,0l0,0l0,0l0,0l0,0l0,0H14c-0.1,0-0.2,0.1-0.2,0.2v4.8c0,0.1,0.1,0.2,0.2,0.2h0.8c0.1,0,0.2-0.1,0.2-0.2v-2.8l2.2,2.9
					c0,0,0,0,0.1,0.1l0,0l0,0l0,0l0,0l0,0l0,0l0,0l0,0c0,0,0,0,0.1,0H18c0.1,0,0.2-0.1,0.2-0.2v-4.8C18.2,11.4,18.1,11.3,18,11.3"/>
				<path class="st0" d="M10.9,15.3H8.8v-3.8c0-0.1-0.1-0.2-0.2-0.2H7.8c-0.1,0-0.2,0.1-0.2,0.2v4.8l0,0c0,0.1,0,0.1,0.1,0.1l0,0
					l0,0l0.1,0.1l0,0h3.1c0.1,0,0.2-0.1,0.2-0.2v-0.8C11.1,15.4,11,15.3,10.9,15.3"/>
				<path class="st0" d="M22.2,12.5c0.1,0,0.2-0.1,0.2-0.2v-0.8c0-0.1-0.1-0.2-0.2-0.2h-3.1l0,0c-0.1,0-0.1,0-0.1,0.1l0,0l0,0
					l-0.1,0.1l0,0v4.8l0,0c0,0.1,0,0.1,0.1,0.1l0,0l0,0l0.1,0.1l0,0h3.1c0.1,0,0.2-0.1,0.2-0.2v-0.8c0-0.1-0.1-0.2-0.2-0.2h-2.1
					v-0.8h2.1c0.1,0,0.2-0.1,0.2-0.2v-0.8c0-0.1-0.1-0.2-0.2-0.2h-2.1v-0.8C20.1,12.5,22.2,12.5,22.2,12.5z"/>
			</g>
		</g>
	</g>
</g>
</svg>
