<svg xmlns="http://www.w3.org/2000/svg" width="72.951" height="38" viewBox="0 0 72.951 38">
  <path id="logo" d="M71.228,38.74a1.779,1.779,0,1,1,1.777-1.778A1.783,1.783,0,0,1,71.228,38.74ZM67.99,36.578c-.554,2.038-2.526,2.2-3.487,2.2-3.344,0-4.355-1.522-4.355-7.315,0-4.718.172-8.776-.543-10.117-.394-.737-1.026-.952-2.056-.95h-.477V38.087l1.118,0,.233.393-.232.284h-7.8l-.22-.332.22-.345,1.352,0V1.472H50.386l-.2-.348.2-.315h8.669c3.613,0,6.4,4.93,6.395,9.221,0,5.033-2.267,9.8-7.291,9.8l2.294.114c4.877,1.081,4.449,4.875,4.449,14.138,0,1.827-.034,3.514,1.624,3.1,1.229-.3,1.095-3.335,1.242-7.773.02-.524.42-.031.42-.031l-.1,6.539Zm-7.8-26.335c0-6.363.533-8.6-2.413-8.6l-.5.2-.2.485V18.963l.162.274.373.069C60.586,19.307,60.186,15.357,60.186,10.243ZM47.181,38.623a1.78,1.78,0,1,1,1.775-1.779A1.78,1.78,0,0,1,47.181,38.623Zm-21.289.117H16.424l-.25-.364.25-.3h1.536l0-36.545H16.424l-.25-.407.25-.343h11.4c6.243,0,9.31.738,12.264,2.556,5.906,3.635,8.746,9.6,8.746,16.421,0,6.591-3.07,13.409-9.031,16.7C35.491,38.853,30.605,38.74,25.892,38.74ZM38.529,4.862C35.244,2.006,34.893,1.719,24.8,1.719c-1.219.014-1.368.979-1.337,1.937h-.01v32.4a1.9,1.9,0,0,0,1.849,1.9c9.4,0,10.577-.487,13.453-3.794,2.627-3.026,5.1-7.031,5.1-14.359C43.854,11.226,40.318,6.419,38.529,4.862ZM7.7,23l-.956.077V38.026H7.914l.25.35-.25.364H.295l-.241-.326.241-.372H1.615V1.446H.294l-.2-.355L.295.78H7.1c4.206,0,7.991,2.886,7.991,11.2C15.092,19.934,11.506,23,7.7,23ZM7.1,1.531l-.275.383V22.086l.275,0c2.884-.132,2.734-3.405,2.734-10.414C9.836,5.177,10.316,1.534,7.1,1.531Zm5.544,33.532a1.78,1.78,0,1,1-1.775,1.778A1.78,1.78,0,0,1,12.645,35.063Z" transform="translate(-0.054 -0.78)" fill="#f36b30" fill-rule="evenodd"/>
</svg>
