<svg xmlns="http://www.w3.org/2000/svg" xmlns:xlink="http://www.w3.org/1999/xlink" width="30" height="30" viewBox="0 0 30 30"><defs><clipPath id="a"><rect width="30" height="30" fill="none"/></clipPath></defs><g clip-path="url(#a)"><path d="M15,0A15,15,0,0,0,9.534,28.973a14.411,14.411,0,0,1,.052-4.308c.272-1.171,1.759-7.456,1.759-7.456a5.416,5.416,0,0,1-.449-2.227c0-2.086,1.209-3.643,2.714-3.643a1.884,1.884,0,0,1,1.9,2.113c0,1.287-.82,3.211-1.242,4.994a2.178,2.178,0,0,0,2.221,2.71c2.666,0,4.715-2.811,4.715-6.869a5.921,5.921,0,0,0-6.266-6.1A6.493,6.493,0,0,0,8.164,14.7,5.835,5.835,0,0,0,9.28,18.118a.449.449,0,0,1,.1.43c-.114.474-.367,1.493-.417,1.7-.065.275-.217.333-.5.2-1.874-.872-3.045-3.611-3.045-5.811,0-4.732,3.438-9.077,9.911-9.077,5.2,0,9.247,3.708,9.247,8.663,0,5.17-3.26,9.33-7.784,9.33a4.015,4.015,0,0,1-3.438-1.722s-.752,2.864-.934,3.566a16.771,16.771,0,0,1-1.864,3.932A15,15,0,1,0,15,0" fill="#d10013"/></g></svg>