<svg xmlns="http://www.w3.org/2000/svg" xmlns:xlink="http://www.w3.org/1999/xlink" width="30" height="30" viewBox="0 0 30 30"><defs><clipPath id="a"><rect width="30" height="30" fill="none"/></clipPath></defs><g transform="translate(-1013 -4017)"><g transform="translate(1013 4017)"><g clip-path="url(#a)"><path d="M30,15A15,15,0,1,1,15,0,15,15,0,0,1,30,15" fill="#1da1f2"/></g><g clip-path="url(#a)"><path d="M95.043,128.83a10.219,10.219,0,0,0,10.288-10.288q0-.235-.01-.467a7.358,7.358,0,0,0,1.8-1.872,7.219,7.219,0,0,1-2.077.569,3.629,3.629,0,0,0,1.59-2,7.246,7.246,0,0,1-2.3.878,3.619,3.619,0,0,0-6.162,3.3,10.266,10.266,0,0,1-7.453-3.778A3.619,3.619,0,0,0,91.846,120a3.59,3.59,0,0,1-1.638-.452c0,.015,0,.03,0,.046a3.618,3.618,0,0,0,2.9,3.545,3.612,3.612,0,0,1-1.633.062,3.62,3.62,0,0,0,3.378,2.512,7.256,7.256,0,0,1-4.491,1.548,7.368,7.368,0,0,1-.863-.05,10.238,10.238,0,0,0,5.543,1.624" transform="translate(-82.788 -105.918)" fill="#fff"/></g></g></g></svg>