<svg xmlns="http://www.w3.org/2000/svg" xmlns:xlink="http://www.w3.org/1999/xlink" width="30" height="21" viewBox="0 0 30 21"><defs><clipPath id="a"><rect width="30" height="21" fill="none"/></clipPath></defs><g transform="translate(0 0)"><g transform="translate(0 0)" clip-path="url(#a)"><path d="M29.373,3.279A3.757,3.757,0,0,0,26.721.627C24.381,0,15,0,15,0S5.619,0,3.279.627A3.757,3.757,0,0,0,.627,3.279,39.05,39.05,0,0,0,0,10.5a39.047,39.047,0,0,0,.627,7.221,3.757,3.757,0,0,0,2.652,2.652C5.619,21,15,21,15,21s9.381,0,11.721-.627a3.757,3.757,0,0,0,2.652-2.652A39.032,39.032,0,0,0,30,10.5a39.034,39.034,0,0,0-.627-7.221" transform="translate(0 0)" fill="red"/><path d="M48.594,33.3l7.794-4.5-7.794-4.5Z" transform="translate(-36.594 -18.297)" fill="#fff"/></g></g></svg>