<svg version="1.1" xmlns="http://www.w3.org/2000/svg" viewBox="0 0 35 35">
  <symbol id="list">
    <path d="M12.2,27.8h20.3c0.8,0,1.5,0.6,1.5,1.4V32c0,0.8-0.7,1.5-1.5,1.4H12.2c-0.8,0-1.5-0.6-1.5-1.4v-2.8C10.7,28.4,11.4,27.7,12.2,27.8z M1.2,27.8h5.3c0.1,0,0.2,0.1,0.2,0.2v5.3c0,0.1-0.1,0.2-0.2,0.2H1.2c-0.1,0-0.2-0.1-0.2-0.2v-5.3C1,27.9,1.1,27.8,1.2,27.8L1.2,27.8z M12.2,14.1h20.3c0.8,0,1.5,0.6,1.5,1.4v2.8c0,0.8-0.7,1.5-1.5,1.4H12.2c-0.8,0-1.5-0.6-1.5-1.4v-2.8C10.7,14.7,11.4,14,12.2,14.1L12.2,14.1z M1.2,14.1h5.3c0.1,0,0.2,0.1,0.2,0.2v5.3c0,0.1-0.1,0.2-0.2,0.2H1.2c-0.1,0-0.2-0.1-0.2-0.2v-5.3C1,14.1,1.1,14.1,1.2,14.1L1.2,14.1z M12.2,1.6h20.3C33.3,1.5,34,2.2,34,3v2.8c0,0.8-0.7,1.5-1.5,1.4H12.2c-0.8,0-1.5-0.6-1.5-1.4V3C10.7,2.2,11.4,1.5,12.2,1.6L12.2,1.6z M1.2,1.6h5.3c0.1,0,0.2,0.1,0.2,0.2v5.3c0,0.1-0.1,0.2-0.2,0.2H1.2C1.1,7.2,1,7.1,1,7.1V1.7C1,1.6,1.1,1.6,1.2,1.6L1.2,1.6z"/>
  </symbol>
</svg>