<svg version="1.1" xmlns="http://www.w3.org/2000/svg" viewBox="0 0 35 35">
  <symbol id="thumb">
    <path d="M1,2.3c0-1,0.8-1.9,1.8-1.9h5.5c1,0,1.9,0.9,1.8,1.9V8c0,1-0.8,1.9-1.8,1.9H2.8C1.8,9.9,1,9,1,8V2.3z M1,14.7c0-1,0.8-1.9,1.8-1.9h5.5c1,0,1.9,0.9,1.8,1.9v5.7c0,1-0.8,1.9-1.8,1.9c0,0,0,0,0,0H2.8c-1,0-1.9-0.9-1.8-1.9V14.7z M1,27c0-1,0.8-1.9,1.8-1.9h5.5c1,0,1.9,0.9,1.8,1.9v5.7c0,1-0.8,1.9-1.8,1.9H2.8c-1,0-1.9-0.9-1.8-1.9V27z M12.9,2.3c0-1,0.8-1.9,1.8-1.9h5.5c1,0,1.9,0.9,1.8,1.9V8c0,1-0.8,1.9-1.8,1.9h-5.5c-1,0-1.9-0.9-1.8-1.9V2.3z M12.9,14.7c0-1,0.8-1.9,1.8-1.9h5.5c1,0,1.9,0.9,1.8,1.9v5.7c0,1-0.8,1.9-1.8,1.9h-5.5c-1,0-1.9-0.9-1.8-1.9c0,0,0,0,0,0V14.7z M12.9,27c0-1,0.8-1.9,1.8-1.9h5.5c1,0,1.8,0.9,1.8,1.9v5.7c0,1-0.8,1.9-1.8,1.9h-5.5c-1,0-1.9-0.9-1.8-1.9V27z M24.8,2.3c0-1,0.8-1.9,1.8-1.9h5.5c1,0,1.9,0.9,1.8,1.9V8c0,1-0.8,1.9-1.8,1.9h-5.5c-1,0-1.9-0.9-1.8-1.9V2.3z M24.8,14.7c0-1,0.8-1.9,1.8-1.9h5.5c1,0,1.9,0.9,1.8,1.9v5.7c0,1-0.8,1.9-1.8,1.9h-5.5c-1,0-1.9-0.9-1.8-1.9V14.7z M24.8,27c0-1,0.8-1.9,1.8-1.9h5.5c1,0,1.9,0.9,1.8,1.9v5.7c0,1-0.8,1.9-1.8,1.9h-5.5c-1,0-1.9-0.9-1.8-1.9V27z"/>
  </symbol>
</svg>